<?xml version="1.0" encoding="UTF-8"?>
<svg id="Capa_2" data-name="Capa 2" xmlns="http://www.w3.org/2000/svg" viewBox="0 0 268.86 271.93">
  <defs>
    <style>
      .cls-1 {
        fill: #ec69b0;
      }

      .cls-2 {
        fill: none;
        stroke: #fff;
        stroke-miterlimit: 10;
        stroke-width: 3px;
      }

      .cls-3 {
        fill: #fff;
        font-family: BritannicBold, 'Britannic Bold';
        font-size: 37.29px;
      }
    </style>
  </defs>
  <g id="Capa_1-2" data-name="Capa 1">
    <rect class="cls-1" x="15.12" width="242.26" height="271.93" rx="22.88" ry="22.88"/>
  </g>
  <g id="Capa_2-2" data-name="Capa 2">
    <text class="cls-3" transform="translate(47.35 208.59) scale(.97 1)"><tspan x="0" y="0">Fresas con </tspan><tspan x="38.01" y="44.75">crema</tspan></text>
  </g>
  <g id="Capa_3" data-name="Capa 3">
    <g>
      <path class="cls-2" d="M140.31,74.69c-12.35,0-28.43-1.78-37.66-3.68l10.45,92.75s9.11,4.75,28.71,4.75,28.65-4.75,28.65-4.75l10.19-92.75c-9.7,2.29-26.61,3.68-40.34,3.68Z"/>
      <path class="cls-2" d="M155.83,116.91c0,7.25-8.96,18.83-14.17,18.83s-14.17-11.58-14.17-18.83,6.35-13.12,14.17-13.12,14.17,5.87,14.17,13.12Z"/>
      <path class="cls-2" d="M153.27,109.73s10.9-10.02,8.74-11.9c-1.84-1.6-11.47,1.18-14.27,2.04-.82-3.36-3.35-12.83-5.67-12.21-2.28,.61-4.77,9.02-5.63,12.18-1.99-.71-13.84-4.83-14.65-2.4-.88,2.66,8.45,12.01,8.45,12.01"/>
      <path class="cls-2" d="M119.86,45.77c-3.91,1.4-6.72,5.21-6.72,9.68,0,2.27,.73,4.37,1.96,6.07-4.85,.73-8.58,4.98-8.58,10.13h0"/>
      <path class="cls-2" d="M135.92,31.53c-5.23,.89-12,2.97-12.53,7.76-.06,.55-.05,1.08,.02,1.61"/>
      <path class="cls-2" d="M177.51,71.64h0c0-5.15-3.73-9.4-8.58-10.13,1.23-1.7,1.96-3.79,1.96-6.07,0-5.66-4.5-10.25-10.06-10.25h-.04c1.16-1.67,1.94-3.7,1.84-5.9-.23-4.93-7.46-7.08-13.7-7.93"/>
      <path class="cls-2" d="M135.92,29.72c0-3.19,4.2-8.3,6.65-8.3s6.65,5.1,6.65,8.3c0,3.19-2.98,5.78-6.65,5.78-3.67,0-6.65-2.59-6.65-5.78Z"/>
      <path class="cls-2" d="M145.82,57.64c-1.38,2.33-6.56,4.46-8.29,3.53s-2.49-6.26-1.11-8.59,4.61-3.09,7.2-1.69,3.58,4.42,2.2,6.76Z"/>
      <path class="cls-2" d="M153.29,38.96c1.41,1.7,1.42,6.13,.11,7.12s-5.83-.02-7.24-1.73c-1.41-1.7-.96-4.29,1.01-5.78s4.71-1.32,6.13,.39Z"/>
      <path class="cls-2" d="M165.52,52.88c1.12,2.31-.21,7.38-2.03,8.18s-6.75-1.49-7.87-3.8,.18-5.16,2.92-6.37,5.86-.32,6.99,1.98Z"/>
      <path class="cls-2" d="M128.59,47.86c-1.58,1.95-6.45,3.34-7.81,2.34s-1.17-5.85,.41-7.8,4.52-2.31,6.56-.8c2.04,1.51,2.42,4.31,.84,6.26Z"/>
      <path class="cls-2" d="M130.38,69.73c-1.81,2.23-7.52,3.71-9.16,2.5s-1.57-6.86,.23-9.09c1.81-2.23,5.27-2.57,7.74-.75,2.47,1.82,3,5.1,1.19,7.33Z"/>
      <path class="cls-2" d="M155.91,66.18c1.07,2.19-.09,6.97-1.75,7.71s-6.25-1.49-7.32-3.68,.09-4.87,2.6-5.98,5.4-.24,6.47,1.95Z"/>
    </g>
  </g>
</svg>