<?xml version="1.0" encoding="UTF-8"?>
<svg id="Capa_2" data-name="Capa 2" xmlns="http://www.w3.org/2000/svg" viewBox="0 0 243.43 271.88">
  <defs>
    <style>
      .cls-1 {
        fill: #fff;
        font-family: BritannicBold, 'Britannic Bold';
        font-size: 37.28px;
      }

      .cls-2 {
        fill: #ec69b0;
      }

      .cls-3 {
        stroke-width: 3px;
      }

      .cls-3, .cls-4 {
        fill: none;
        stroke: #fff;
        stroke-miterlimit: 10;
      }

      .cls-4 {
        stroke-width: 4px;
      }
    </style>
  </defs>
  <g id="Capa_1-2" data-name="Capa 1">
    <rect class="cls-2" width="243.43" height="271.88" rx="22.88" ry="22.88"/>
  </g>
  <g id="Capa_2-2" data-name="Capa 2">
    <text class="cls-1" transform="translate(42.03 241.3) scale(.98 1)"><tspan x="0" y="0">Malteadas</tspan></text>
  </g>
  <g id="Capa_3" data-name="Capa 3">
    <path class="cls-4" d="M157.46,88.45c3.02-11.58,3.6-20.45-.24-19.82-24.07,3.93-49.84,2.59-70.68,0-2.92-.36-1.94,7.35,1.62,19.82"/>
    <path class="cls-4" d="M105.36,135.12c4.92,10.78,9.84,19.55,13.58,22.97,0,0-33.72,21.2-26.52,24.24,7.2,3.04,54.11,2.93,59.97,0,5.85-2.93-26.43-24.3-26.43-24.3,3.92-3.81,9.04-12.73,14.11-23.53"/>
    <path class="cls-4" d="M128.92,107.02c0,11.11-6.49,32.39-6.49,32.39,0,0-6.49-21.28-6.49-32.39s2.91-20.11,6.49-20.11,6.49,9,6.49,20.11Z"/>
    <path class="cls-4" d="M155.79,108.29c-3.5,10.48-16.31,28.27-16.31,28.27,0,0,.57-22.34,4.07-32.82,3.5-10.48,9.07-17.95,12.45-16.7s3.29,10.77-.21,21.25Z"/>
    <path class="cls-4" d="M102.14,103.81c3.65,10.42,4.01,33.02,4.01,33.02,0,0-12.54-17.85-16.19-28.27-3.65-10.42-3.88-19.93-.52-21.24,3.36-1.31,9.05,6.07,12.69,16.49Z"/>
    <path class="cls-4" d="M155.61,68.59c-.38-4.73-4.24-8.57-8.99-8.58,.82-1.31,1.3-2.85,1.3-4.51,0-4.74-9.93-8.58-9.93-8.58,1.04-1.42,1.66-3.16,1.66-5.05h0c0-4.74-9.51-8.82-9.98-8.95,.9-1.24,1.44-2.76,1.44-4.41,0-4.17-3.39-7.54-7.58-7.54s-7.58,3.38-7.58,7.54c0,1.39,.38,2.69,1.04,3.81-1.03,.22-11.77,4.82-11.77,9.56h0c0,1.89,.62,3.63,1.66,5.05,0,0-9.93,3.84-9.93,8.58,0,1.66,.48,3.2,1.3,4.51-4.76,0-8.61,3.84-8.23,8.58"/>
    <polyline class="cls-3" points="91.1 63.57 73.39 20.46 79.09 18.14 96.53 60.6"/>
  </g>
</svg>