<?xml version="1.0" encoding="UTF-8"?>
<svg id="Capa_2" data-name="Capa 2" xmlns="http://www.w3.org/2000/svg" viewBox="0 0 242.5 271.88">
  <defs>
    <style>
      .cls-1 {
        fill: #fff;
        font-family: BritannicBold, 'Britannic Bold';
        font-size: 37.28px;
      }

      .cls-2 {
        fill: #ec69b0;
      }

      .cls-3 {
        fill: none;
        stroke: #fff;
        stroke-miterlimit: 10;
        stroke-width: 4px;
      }
    </style>
  </defs>
  <g id="Capa_1-2" data-name="Capa 1">
    <rect class="cls-2" x="0" width="242.5" height="271.88" rx="22.88" ry="22.88"/>
  </g>
  <g id="Capa_2-2" data-name="Capa 2">
    <text class="cls-1" transform="translate(61.01 240.33) scale(.97 1)"><tspan x="0" y="0">Helados</tspan></text>
  </g>
  <g id="Capa_3" data-name="Capa 3">
    <g>
      <polyline class="cls-3" points="151.74 99.67 124.65 184.56 97.56 99.67"/>
      <path class="cls-3" d="M165.07,62.59c.95-20.87-16.29-38.59-38.5-39.58-22.21-1-40.99,15.11-41.93,35.98-.46,10.16,3.4,19.57,10.04,26.67-2.61,1.58-4.22,4.43-3.91,7.55,.43,4.48,4.65,7.8,9.42,7.42,3.62-.29,6.51-2.63,7.51-5.7,.11,.05,.22,.09,.33,.14-.88,1.41-1.32,3.07-1.15,4.83,.43,4.48,4.65,7.8,9.42,7.42,4.74-.38,8.23-4.28,7.85-8.72,.12,0,.23,0,.35,0-.72,4,1.83,7.98,6.08,9.18,4.59,1.3,9.42-1.13,10.78-5.44,.73-2.31,.31-4.68-.94-6.59,.32-.13,.64-.26,.96-.39,1.06,1.82,2.85,3.26,5.12,3.9,4.59,1.3,9.42-1.13,10.78-5.44,.93-2.93,.01-5.96-2.11-8.02,5.81-6.22,9.5-14.28,9.9-23.21Z"/>
    </g>
  </g>
</svg>