<?xml version="1.0" encoding="UTF-8"?>
<svg id="Capa_2" data-name="Capa 2" xmlns="http://www.w3.org/2000/svg" viewBox="0 0 61.77 118.96">
  <defs>
    <style>
      .cls-1 {
        fill: none;
        stroke: #fff;
        stroke-miterlimit: 10;
        stroke-width: 3px;
      }
    </style>
  </defs>
  <g id="Capa_3" data-name="Capa 3">
    <g>
      <path class="cls-1" d="M29.88,43.49c-9.24,0-21.26-1.41-28.17-2.9l7.82,73.13s6.82,3.74,21.47,3.74,21.43-3.74,21.43-3.74l7.62-73.13c-7.26,1.81-19.9,2.9-30.17,2.9Z"/>
      <path class="cls-1" d="M41.48,76.78c0,5.71-6.7,14.84-10.6,14.84s-10.6-9.13-10.6-14.84,4.75-10.34,10.6-10.34,10.6,4.63,10.6,10.34Z"/>
      <path class="cls-1" d="M39.57,71.12s8.16-7.9,6.54-9.38c-1.38-1.26-8.58,.93-10.68,1.61-.61-2.65-2.51-10.12-4.24-9.63-1.71,.48-3.57,7.11-4.21,9.61-1.49-.56-10.35-3.81-10.96-1.89-.66,2.09,6.32,9.47,6.32,9.47"/>
      <path class="cls-1" d="M14.58,20.69c-2.93,1.11-5.03,4.1-5.03,7.63,0,1.79,.55,3.44,1.47,4.78-3.63,.58-6.42,3.93-6.42,7.99h0"/>
      <path class="cls-1" d="M26.59,9.47c-3.91,.71-8.98,2.34-9.38,6.12-.05,.43-.04,.85,.02,1.27"/>
      <path class="cls-1" d="M57.71,41.09h0c0-4.06-2.79-7.41-6.42-7.99,.92-1.34,1.47-2.99,1.47-4.78,0-4.47-3.37-8.08-7.52-8.08h-.03c.86-1.32,1.45-2.92,1.38-4.65-.17-3.89-5.58-5.58-10.24-6.25"/>
      <path class="cls-1" d="M26.59,8.04c0-2.52,3.14-6.54,4.97-6.54s4.97,4.02,4.97,6.54-2.23,4.56-4.97,4.56-4.97-2.04-4.97-4.56Z"/>
      <path class="cls-1" d="M34,30.06c-1.03,1.84-4.91,3.51-6.2,2.78s-1.86-4.94-.83-6.77c1.03-1.84,3.45-2.44,5.39-1.33s2.68,3.49,1.64,5.33Z"/>
      <path class="cls-1" d="M39.59,15.33c1.06,1.34,1.06,4.83,.08,5.61-.98,.78-4.36-.02-5.42-1.36-1.06-1.34-.72-3.38,.75-4.55,1.47-1.17,3.53-1.04,4.58,.3Z"/>
      <path class="cls-1" d="M48.74,26.3c.84,1.82-.16,5.82-1.52,6.45-1.36,.64-5.05-1.18-5.89-2.99-.84-1.82,.14-4.07,2.18-5.02s4.38-.25,5.22,1.56Z"/>
      <path class="cls-1" d="M21.11,22.34c-1.18,1.54-4.82,2.64-5.84,1.85s-.88-4.61,.31-6.15,3.38-1.82,4.91-.63c1.53,1.19,1.81,3.4,.63,4.94Z"/>
      <path class="cls-1" d="M22.45,39.58c-1.35,1.76-5.63,2.93-6.86,1.97-1.23-.95-1.18-5.41,.18-7.17s3.95-2.02,5.79-.59,2.24,4.02,.89,5.78Z"/>
      <path class="cls-1" d="M41.55,36.78c.8,1.73-.06,5.49-1.31,6.08-1.25,.58-4.67-1.17-5.47-2.9s.07-3.84,1.94-4.72c1.87-.88,4.04-.19,4.84,1.54Z"/>
    </g>
  </g>
</svg>