<?xml version="1.0" encoding="UTF-8"?>
<svg id="Capa_2" data-name="Capa 2" xmlns="http://www.w3.org/2000/svg" viewBox="0 0 298.25 290.6">
  <defs>
    <style>
      .cls-1 {
        fill: #fff;
      }

      .cls-2 {
        fill: #ec69b0;
      }
    </style>
  </defs>
  <g id="Capa_3" data-name="Capa 3">
    <g>
      <path class="cls-1" d="M0,290.6C0,193.73,0,96.87,0,0c99.42,0,198.84,0,298.25,0,0,96.87,0,193.73,0,290.6-99.42,0-198.84,0-298.25,0ZM44.87,143.68c.19,61.3,48.05,110.37,107.31,110.02,59.44-.36,107.46-49.98,107.05-110.62-.4-60.38-48.7-109.32-107.63-109.06-59.38,.26-106.92,49.11-106.73,109.67Z"/>
      <path class="cls-2" d="M44.87,143.68c-.19-60.56,47.35-109.41,106.73-109.67,58.93-.26,107.22,48.68,107.63,109.06,.41,60.65-47.61,110.27-107.05,110.62-59.25,.36-107.12-48.72-107.31-110.02Zm86.68,82.28h29.56v-68.49c6.04,0,11.28,.32,16.46-.16,1.96-.18,5.1-1.91,5.41-3.44,1.59-7.68,2.43-15.54,3.7-24.59h-26.63c1.05-9.65-.75-20.36,3.62-25.88,4.64-5.86,15.12-6.8,23.63-10.12v-20.73c-5.51,0-10.46-.07-15.41,.02-5.56,.09-11.28-.48-16.64,.65-12.65,2.67-21.93,14.58-23,29.44-.63,8.76-.12,17.6-.12,27.17h-24.43v27.7h23.84v68.42Z"/>
      <path class="cls-1" d="M131.55,225.96v-68.42h-23.84v-27.7h24.43c0-9.57-.52-18.41,.12-27.17,1.07-14.86,10.35-26.78,23-29.44,5.37-1.13,11.08-.56,16.64-.65,4.95-.08,9.9-.02,15.41-.02v20.73c-8.51,3.32-18.99,4.25-23.63,10.12-4.37,5.52-2.57,16.23-3.62,25.88h26.63c-1.28,9.05-2.11,16.9-3.7,24.59-.32,1.53-3.45,3.26-5.41,3.44-5.18,.48-10.42,.16-16.46,.16v68.49h-29.56Z"/>
    </g>
  </g>
</svg>