<?xml version="1.0" encoding="UTF-8"?>
<svg id="Capa_2" data-name="Capa 2" xmlns="http://www.w3.org/2000/svg" viewBox="0 0 64.16 136.34">
  <defs>
    <style>
      .cls-1 {
        fill: none;
        stroke: #fff;
        stroke-miterlimit: 10;
        stroke-width: 4px;
      }
    </style>
  </defs>
  <g id="Capa_3" data-name="Capa 3">
    <g>
      <polyline class="cls-1" points="52.17 62.49 31.93 129.43 11.68 62.49"/>
      <path class="cls-1" d="M62.13,33.25c.71-16.45-12.17-30.43-28.77-31.21C16.77,1.25,2.74,13.95,2.03,30.41c-.35,8.01,2.54,15.43,7.5,21.03-1.95,1.25-3.15,3.5-2.92,5.95,.32,3.54,3.48,6.15,7.04,5.85,2.7-.23,4.86-2.08,5.61-4.5,.08,.04,.17,.07,.25,.11-.65,1.11-.98,2.42-.86,3.81,.32,3.54,3.48,6.15,7.04,5.85,3.54-.3,6.15-3.37,5.87-6.88,.09,0,.17,0,.26,0-.54,3.15,1.37,6.29,4.54,7.24,3.43,1.03,7.04-.89,8.05-4.29,.55-1.82,.23-3.69-.7-5.2,.24-.1,.48-.2,.72-.31,.79,1.43,2.13,2.57,3.83,3.08,3.43,1.03,7.04-.89,8.05-4.29,.69-2.31,0-4.7-1.58-6.32,4.34-4.91,7.1-11.26,7.4-18.3Z"/>
    </g>
  </g>
</svg>