<?xml version="1.0" encoding="UTF-8"?>
<svg id="Capa_2" data-name="Capa 2" xmlns="http://www.w3.org/2000/svg" viewBox="0 0 254.31 255.97">
  <defs>
    <style>
      .cls-1 {
        fill: #fff;
      }

      .cls-2 {
        fill: #ec69b0;
      }
    </style>
  </defs>
  <g id="Capa_3" data-name="Capa 3">
    <g>
      <path class="cls-1" d="M0,255.97C0,170.7,0,85.43,0,0,84.64,0,169.34,0,254.31,0V255.97H0ZM128.39,26.23c-60.39,.03-109.46,47.7-109.55,106.43-.1,59.43,48.69,107.46,109.28,107.59,60.41,.13,109.63-48.12,109.52-107.34-.12-58.89-49.1-106.71-109.25-106.68Z"/>
      <path class="cls-2" d="M128.39,26.23c60.15-.03,109.13,47.79,109.25,106.68,.12,59.22-49.11,107.48-109.52,107.34-60.59-.13-109.38-48.17-109.28-107.59,.1-58.73,49.16-106.39,109.55-106.43Zm69.85,107.56c0-10.39,.12-20.77-.03-31.16-.3-21.3-16.27-37.08-37.96-37.27-21.35-.19-42.7-.19-64.05,0-21.08,.18-37.11,14.97-37.7,35.69-.61,21.6-.61,43.24,.06,64.83,.58,18.56,13.53,33.44,32.24,34.53,24.93,1.45,50.08,1.45,75.01-.03,18.99-1.13,32.11-17.43,32.4-36.26,.15-10.1,.03-20.21,.03-30.32Z"/>
      <path class="cls-1" d="M198.23,133.79c0,10.11,.13,20.21-.03,30.32-.28,18.83-13.4,35.13-32.4,36.26-24.93,1.48-50.08,1.48-75.01,.03-18.7-1.09-31.66-15.97-32.24-34.53-.67-21.59-.67-43.24-.06-64.83,.59-20.71,16.62-35.51,37.7-35.69,21.35-.18,42.7-.18,64.05,0,21.69,.19,37.66,15.97,37.96,37.27,.15,10.38,.03,20.77,.02,31.16Zm-70.29,55.7c10.24,0,20.49,.22,30.73-.05,17.28-.46,27.21-10.66,27.28-27.82,.08-18.8,.05-37.6,0-56.4-.05-17.71-9.78-28.02-27.61-28.35-20.2-.37-40.41-.35-60.61,0-16.97,.3-27.3,11.06-27.4,27.85-.11,18.8-.1,37.6-.01,56.4,.08,17.97,10.22,28.03,28.59,28.35,9.67,.17,19.35,.03,29.02,.02Z"/>
      <path class="cls-2" d="M127.94,189.5c-9.67,0-19.35,.14-29.02-.03-18.37-.32-28.51-10.38-28.59-28.35-.08-18.8-.1-37.6,.01-56.4,.1-16.79,10.43-27.55,27.4-27.85,20.2-.36,40.41-.38,60.61,0,17.83,.33,27.57,10.65,27.61,28.35,.05,18.8,.07,37.6,0,56.4-.07,17.16-10,27.36-27.28,27.82-10.24,.27-20.49,.05-30.73,.06Zm38.27-56.51c-.11-20.41-17.52-37.27-38.35-37.13-20.57,.14-37.71,17.52-37.45,37.99,.25,20.24,17.11,36.45,37.89,36.44,21.16-.01,38.02-16.6,37.91-37.3Zm-.33-25.43c3.61-5.03,7.74-8.36,7.22-10.64-.71-3.05-4.81-6.93-7.86-7.31-2.24-.28-7.21,4.49-7.2,6.99,.01,2.99,4.03,5.97,7.85,10.96Z"/>
      <path class="cls-1" d="M166.22,132.99c.11,20.7-16.74,37.28-37.91,37.3-20.78,.01-37.64-16.2-37.89-36.44-.26-20.47,16.88-37.85,37.45-37.99,20.82-.14,38.23,16.72,38.35,37.13Zm-37.86-23.95c-13.98-.02-25.22,10.78-25.2,24.21,.02,13.36,11.43,24.63,25.04,24.73,13.29,.1,25.16-11.45,25.24-24.57,.08-13.29-11.3-24.35-25.08-24.37Z"/>
      <path class="cls-1" d="M165.89,107.56c-3.82-4.98-7.84-7.96-7.85-10.96-.01-2.5,4.96-7.27,7.2-6.99,3.05,.38,7.16,4.26,7.86,7.31,.53,2.28-3.6,5.61-7.22,10.64Z"/>
      <path class="cls-2" d="M128.36,109.04c13.78,.02,25.16,11.08,25.08,24.37-.08,13.12-11.94,24.67-25.24,24.57-13.61-.1-25.02-11.37-25.04-24.73-.02-13.44,11.22-24.23,25.2-24.21Z"/>
    </g>
  </g>
</svg>