<?xml version="1.0" encoding="UTF-8"?>
<svg id="Capa_2" data-name="Capa 2" xmlns="http://www.w3.org/2000/svg" viewBox="0 0 388.55 397.01">
  <defs>
    <style>
      .cls-1, .cls-2, .cls-3 {
        fill: none;
      }

      .cls-1, .cls-2, .cls-3, .cls-4 {
        stroke: #fff;
        stroke-miterlimit: 10;
      }

      .cls-1, .cls-4 {
        stroke-width: 5px;
      }

      .cls-2 {
        stroke-width: 3px;
      }

      .cls-3 {
        stroke-width: 4px;
      }

      .cls-4 {
        fill: #ec619f;
      }
    </style>
  </defs>
  <g id="Capa_1-2" data-name="Capa 1">
    <ellipse class="cls-4" cx="194.27" cy="198.51" rx="191.77" ry="196.01"/>
    <ellipse class="cls-4" cx="194.27" cy="198.51" rx="156.7" ry="158.83"/>
  </g>
  <g id="Capa_3" data-name="Capa 3">
    <g>
      <path class="cls-1" d="M241.67,222.04c8.51-10.64,13.36-24.29,12.7-38.97-1.44-32.13-28.66-57.01-60.79-55.57s-57.01,28.66-55.57,60.79c.53,11.87,4.59,22.75,11.11,31.68-.8-.11-1.62-.16-2.45-.13-7.26,.33-12.88,6.48-12.56,13.74s6.48,12.88,13.74,12.56c1.76-.08,3.41-.5,4.92-1.2,1.7,5.63,7.03,9.61,13.17,9.34,1.85-.08,3.59-.55,5.15-1.3,2.07,4.94,7.05,8.32,12.72,8.06,3.57-.16,6.74-1.73,9-4.15,2.47,2.2,5.77,3.48,9.34,3.32,4.77-.21,8.82-2.95,10.96-6.86,2.36,1.79,5.34,2.8,8.53,2.65,5.6-.25,10.21-3.97,11.89-8.99,1.67,.66,3.5,.99,5.41,.91,7.26-.33,12.88-6.48,12.56-13.74-.27-5.91-4.39-10.73-9.83-12.15Z"/>
      <line class="cls-1" x1="223.66" y1="305.24" x2="243.01" y2="247.87"/>
      <line class="cls-1" x1="206.24" y1="356.87" x2="218.56" y2="320.36"/>
      <line class="cls-1" x1="145.54" y1="244.79" x2="175.43" y2="356.19"/>
    </g>
  </g>
  <g id="Capa_4" data-name="Capa 4">
    <line class="cls-2" x1="171.1" y1="252.98" x2="157.18" y2="288.17"/>
    <line class="cls-2" x1="189.32" y1="259.56" x2="166.46" y2="322.77"/>
    <line class="cls-2" x1="209.53" y1="257.53" x2="173.99" y2="354.53"/>
    <line class="cls-3" x1="210.25" y1="308.4" x2="193.7" y2="356.19"/>
    <line class="cls-2" x1="229.45" y1="252.98" x2="211.86" y2="303.75"/>
    <line class="cls-2" x1="165.95" y1="254.29" x2="191.76" y2="356.19"/>
    <line class="cls-2" x1="185.48" y1="259.56" x2="210.25" y2="343.42"/>
    <line class="cls-2" x1="205.45" y1="259.56" x2="216.32" y2="304.84"/>
    <line class="cls-2" x1="221.45" y1="256.63" x2="229.25" y2="288.68"/>
    <g>
      <path class="cls-1" d="M86.94,314.21l-43.63-106.6c-2.74-6.71-.6-13.93,4.78-16.14l33.93-13.89,33.93-13.89c5.39-2.2,11.98,1.45,14.72,8.15l7.41,17.51"/>
      <line class="cls-1" x1="82.02" y1="177.59" x2="153.45" y2="352.13"/>
      <line class="cls-1" x1="56.08" y1="242.86" x2="143.87" y2="206.93"/>
      <line class="cls-1" x1="77.02" y1="289.98" x2="150.54" y2="259.89"/>
      <line class="cls-1" x1="109.03" y1="332.56" x2="163.48" y2="310.28"/>
    </g>
  </g>
  <g id="Capa_5" data-name="Capa 5">
    <g>
      <path class="cls-2" d="M292.23,285.57c-1.63-3.62-2.63-7.24-2.63-10.36,0-11.4,9.57-20.65,21.37-20.65,11.8,0,21.37,9.24,21.37,20.65"/>
      <path class="cls-2" d="M327.94,262.96s16.44-15.77,13.19-18.72c-2.77-2.52-17.29,1.86-21.52,3.21-1.24-5.29-5.06-20.19-8.55-19.22-3.44,.96-7.2,14.2-8.49,19.17-3-1.12-20.88-7.61-22.09-3.78-1.33,4.18,12.74,18.9,12.74,18.9"/>
    </g>
    <g>
      <path class="cls-2" d="M249.96,231.36c2.75-1.24,5.81-1.93,9.04-1.93,11.8,0,21.37,9.24,21.37,20.65,0,11.4-13.52,29.62-21.37,29.62-5.81,0-14.72-9.97-18.97-19.78"/>
      <path class="cls-2" d="M275.98,237.83s16.44-15.77,13.19-18.72c-2.77-2.52-17.29,1.86-21.52,3.21-1.24-5.29-5.06-20.19-8.55-19.22-3.44,.96-7.2,14.2-8.49,19.17-.83-.31-2.8-1.03-5.25-1.83"/>
    </g>
    <g>
      <path class="cls-2" d="M224.63,353.61c-3.42-5.4-5.88-11.49-5.88-16.35,0-11.4,9.57-20.65,21.37-20.65,11.8,0,21.37,9.24,21.37,20.65,0,2.2-.5,4.65-1.37,7.17"/>
      <path class="cls-2" d="M257.1,325.01s16.44-15.77,13.19-18.72c-2.77-2.52-17.29,1.86-21.52,3.21-1.24-5.29-5.06-20.19-8.55-19.22-3.44,.96-7.2,14.2-8.49,19.17-1.18-.44-4.65-1.71-8.51-2.85-5.96-1.77-12.84-3.25-13.58-.92-.87,2.74,4.88,10.01,8.94,14.69,2.14,2.46,3.81,4.21,3.81,4.21"/>
    </g>
    <g>
      <path class="cls-2" d="M258.1,306.03c3.11-7.69,10.85-13.14,19.92-13.14,11.8,0,21.37,9.24,21.37,20.65"/>
      <path class="cls-2" d="M295,301.29s16.44-15.77,13.19-18.72c-2.77-2.52-17.29,1.86-21.52,3.21-1.24-5.29-5.06-20.19-8.55-19.22-3.44,.96-7.2,14.2-8.49,19.17-3-1.12-20.88-7.61-22.09-3.78-1.33,4.18,12.74,18.9,12.74,18.9"/>
    </g>
  </g>
</svg>