<?xml version="1.0" encoding="UTF-8"?>
<svg id="Capa_2" data-name="Capa 2" xmlns="http://www.w3.org/2000/svg" viewBox="0 0 68.34 135.23">
  <defs>
    <style>
      .cls-1 {
        stroke-width: 3px;
      }

      .cls-1, .cls-2 {
        fill: none;
        stroke: #fff;
        stroke-miterlimit: 10;
      }

      .cls-2 {
        stroke-width: 4px;
      }
    </style>
  </defs>
  <g id="Capa_3" data-name="Capa 3">
    <g>
      <path class="cls-2" d="M64.51,57.44c2.25-9.13,2.68-16.13-.18-15.63-17.92,3.1-37.1,2.04-52.61,0-2.17-.29-1.44,5.8,1.21,15.63"/>
      <path class="cls-2" d="M25.73,94.24c3.66,8.5,7.32,15.41,10.11,18.11,0,0-25.1,16.72-19.74,19.11,5.36,2.4,40.28,2.31,44.64,0,4.36-2.31-19.68-19.16-19.68-19.16,2.92-3,6.73-10.04,10.51-18.56"/>
      <path class="cls-2" d="M43.26,72.08c0,8.76-4.83,25.54-4.83,25.54,0,0-4.83-16.78-4.83-25.54s2.16-15.86,4.83-15.86,4.83,7.1,4.83,15.86Z"/>
      <path class="cls-2" d="M63.26,73.08c-2.6,8.26-12.14,22.3-12.14,22.3,0,0,.43-17.62,3.03-25.88s6.75-14.16,9.27-13.17c2.52,.99,2.45,8.49-.15,16.75Z"/>
      <path class="cls-2" d="M23.33,69.55c2.72,8.22,2.98,26.04,2.98,26.04,0,0-9.33-14.08-12.05-22.29-2.72-8.22-2.89-15.72-.39-16.75s6.73,4.79,9.45,13Z"/>
      <path class="cls-2" d="M63.13,41.78c-.28-3.73-3.15-6.76-6.7-6.76,.61-1.03,.97-2.25,.97-3.56,0-3.73-7.39-6.76-7.39-6.76,.78-1.12,1.24-2.49,1.24-3.98h0c0-3.73-7.08-6.96-7.43-7.06,.67-.98,1.07-2.18,1.07-3.48,0-3.29-2.53-5.95-5.64-5.95s-5.64,2.66-5.64,5.95c0,1.1,.29,2.12,.78,3-.77,.17-8.76,3.8-8.76,7.54h0c0,1.49,.46,2.86,1.24,3.98,0,0-7.39,3.03-7.39,6.76,0,1.31,.36,2.52,.97,3.56-3.54,0-6.41,3.03-6.13,6.76"/>
      <polyline class="cls-1" points="15.1 37.82 1.92 3.82 6.17 1.99 19.15 35.48"/>
    </g>
  </g>
</svg>