<?xml version="1.0" encoding="UTF-8"?>
<svg id="Capa_2" data-name="Capa 2" xmlns="http://www.w3.org/2000/svg" viewBox="0 0 274.96 265.27">
  <defs>
    <style>
      .cls-1 {
        fill: #fff;
      }

      .cls-2 {
        fill: #ec69b0;
      }
    </style>
  </defs>
  <g id="Capa_3" data-name="Capa 3">
    <g>
      <path class="cls-1" d="M0,265.27C0,176.85,0,88.42,0,0c91.65,0,183.31,0,274.96,0,0,88.42,0,176.85,0,265.27-91.65,0-183.31,0-274.96,0ZM135.94,18.74c-61.63-1.01-113.73,48.61-114.65,109.19-.94,61.95,48.81,112.66,111.74,113.91,61.77,1.23,114.47-48.28,115.38-108.41,.96-63.47-48.24-113.64-112.48-114.7Z"/>
      <path class="cls-2" d="M135.94,18.74c64.23,1.05,113.44,51.23,112.48,114.7-.91,60.13-53.61,109.64-115.38,108.41-62.94-1.25-112.68-51.96-111.74-113.91,.92-60.58,53.02-110.2,114.65-109.19Zm6.29,43.53c0,19.59,.01,38,0,56.42-.01,14.34,.3,28.69-.23,43.02-.4,10.78-9.68,18.82-20.62,19.02-10.74,.19-20.25-7.8-21.67-18.21-1.35-9.9,5.47-19.73,15.8-22.3,3.58-.89,7.36-1.01,11.8-1.58,0-5.68-.3-11.21,.08-16.7,.41-5.96-2.33-7.57-7.87-7.47-22.96,.42-42.73,18.74-44.87,41.86-2.03,22,13.97,43.21,35.98,47.68,30.34,6.16,56.32-14.59,56.69-45.45,.19-15.69,.03-31.38,.03-48.31,11.48,6.13,21.73,11.82,34.46,9.85v-23.24c-21.97-1.61-31.67-15.22-35.25-34.59h-24.32Z"/>
      <path class="cls-1" d="M142.22,62.27h24.32c3.58,19.37,13.28,32.98,35.25,34.59v23.24c-12.73,1.96-22.98-3.72-34.46-9.85,0,16.93,.15,32.62-.03,48.31-.37,30.86-26.34,51.61-56.69,45.45-22.01-4.47-38.01-25.67-35.98-47.68,2.14-23.13,21.91-41.45,44.87-41.86,5.54-.1,8.28,1.52,7.87,7.47-.38,5.48-.08,11.01-.08,16.7-4.43,.57-8.21,.69-11.8,1.58-10.32,2.57-17.14,12.4-15.8,22.3,1.41,10.41,10.93,18.4,21.67,18.21,10.95-.2,20.23-8.24,20.62-19.02,.53-14.32,.21-28.68,.23-43.02,.02-18.42,0-36.84,0-56.42Z"/>
    </g>
  </g>
</svg>