<?xml version="1.0" encoding="UTF-8"?>
<svg id="Capa_2" data-name="Capa 2" xmlns="http://www.w3.org/2000/svg" viewBox="0 0 248.8 256.39">
  <defs>
    <style>
      .cls-1 {
        fill: #965d4d;
      }

      .cls-2 {
        fill: #e33026;
      }

      .cls-3 {
        fill: #fff;
      }

      .cls-4 {
        fill: #e4d0b8;
      }

      .cls-5 {
        fill: #d9cecf;
      }

      .cls-6 {
        fill: #e9dac6;
      }

      .cls-7 {
        fill: #b69e97;
      }

      .cls-8 {
        fill: #f3e8d6;
      }

      .cls-9 {
        fill: #80584d;
      }

      .cls-10 {
        fill: #7a2e1a;
      }

      .cls-11 {
        fill: #d69f96;
      }

      .cls-12 {
        fill: #e1dbdd;
      }

      .cls-13 {
        fill: #de544f;
      }

      .cls-14 {
        fill: #fffefe;
      }

      .cls-15 {
        fill: #9f756d;
      }

      .cls-16 {
        fill: #b26861;
      }

      .cls-17 {
        fill: #d8bdad;
      }
    </style>
  </defs>
  <g id="Capa_2-2" data-name="Capa 2">
    <rect class="cls-3" width="248.8" height="256.39" rx="22.88" ry="22.88"/>
  </g>
  <g id="Capa_6" data-name="Capa 6">
    <g>
      <path class="cls-14" d="M183.85,127.64c0,27.77-.01,55.55,.03,83.32,0,1.59-.06,2.25-2.06,2.24-33.33-.09-66.65-.08-99.98-.02-1.71,0-1.98-.4-1.97-2.03,.05-55.65,.06-111.3-.02-166.94,0-2.02,.67-2.06,2.24-2.06,33.23,.04,66.45,.05,99.68-.02,1.85,0,2.13,.45,2.13,2.18-.06,27.77-.05,55.55-.05,83.32Zm-80.85-51.75l-.06-.08c-.46-.19-.75-.87-1.4-.46-.04-.7-.37-1.3-1.04-.7-.71,.63,.16,.92,.57,1.26-.26,.38-.52,.77-.78,1.15-3.69,1.17-5.4,3.37-5.61,7.2-2.27,1.08-5.1,.84-6.91,3-.9,.54-2.07,.72-2.43,1.94-.21,.19-.41,.39-.62,.58-3.08,1.63-.64,3.18,.07,4.75,.25,.64,.82,.73,1.39,.81,.11,.35,.22,.71,.33,1.06-.23,.36-.45,.72-.68,1.08-.29,.04-.6,.04-.87,.14-.9,.34-.48-1.81-1.45-.85-.78,.77-.12,1.55,.53,2.29,1.5,1.69,3.38,2.72,5.43,3.53,.05,.62,0,1.28,.69,1.63,0,.2,.05,.39,.15,.56,1.52,3.48,2.04,7.22,2.91,10.88,.4,1.68,.2,3.83,2.31,4.74l.57,1.84c-2.42,1.53,1.37,1.5,.65,2.6-1.37,1.07-.25,2.22-.11,3.34-.36,.52-.27,.95,.25,1.29,.05,.38,.1,.76,.15,1.13-.02,4.31,.54,8.54,1.65,12.71,.03,.38,.05,.77,.08,1.15-.17,3.3,.37,6.5,1.35,9.64-.95,1.69,.91,3.18,.33,4.84-.23,1.76,.26,3.36,1.05,4.89,.03,2.67-.25,5.4,1.27,7.82,.01,1.99,.02,3.98,.03,5.97,.77,5.01,2.07,10,2.16,15.02,.09,4.7,2.14,7.71,5.57,10.29,.18,.03,.35,.06,.53,.07,1.46,1.62,3.34,2.33,5.45,2.52,3.77,1.96,7.88,2.75,12.01,3.47,2.95,1.15,6.02,.29,9.03,.52,1.62-.02,3.24-.03,4.86-.05,3.78-.76,7.6-1.4,10.8-3.8,1.65-.79,3.12-1.82,4.3-3.24,2.57-1.28,2.05-4,2.83-6.11,.77-5.63,1.55-11.25,2.32-16.88,.78-5.61,1.52-11.22,1.67-16.9,.05-.59,.11-1.18,.16-1.77,.79-.51,.7-1.16,.31-1.87,.41-1.37,.4-2.76,.25-4.16,1.01-.6,.59-1.55,.6-2.4,.11-1.23,.9-2.41,.25-3.7,.12-.97,.24-1.94,.36-2.91,.95-1.54,.7-3.21,.55-4.87l.07-1.14c.84-.93,.67-2.01,.42-3.09,.07-1.37,.14-2.75,.22-4.12,.77-.49,.66-1.18,.42-1.89,.03-.56,.06-1.12,.09-1.68,0-.22,.02-.45,.03-.67,.15-.96,.31-1.91,.46-2.87,.11-.64,.22-1.27,.32-1.91,1.04-1.29,.31-2.81,.55-4.21,2.38-3.88,2.53-8.3,3.02-12.64,.66-.43,.54-1.15,.65-1.78,.96-.54,1.94-1.07,1.76-2.44,1.25-2.07,3.75-2.38,5.47-3.89,2.42-2.12-.3-3.19-.54-4.71-.16-1.02-1.26-1.46-2.32-1.49-.63-.02-.75,.53-.85,1.02-.38-.01-.76-.02-1.15-.04-.03-.38-.05-.75-.08-1.13,.45-1.81-.26-3.31-1.27-4.73,.02-.84,.05-1.67,.07-2.51,0,0,.02-.02,.02-.02,.08-.04,.24-.09,.24-.11-.03-.16-.09-.31-.15-.47,.83-1.72,2.97-3.33,.44-5.32,.22-1.05-.35-1.81-.96-2.54-.05-.19-.12-.37-.2-.55-.17-.21-.33-.42-.5-.64-1.22-2.32-2.29-4.75-4.23-6.61-1.32-2.05-1.36-5.25-4.82-5.38-3.8-.21-7.6-.43-11.4-.64-.05-2.72,.14-5.47-1.05-8.04-1.39-2.94-1.72-6.28-3.64-9.04-.83-1.2-1.44-1.09-2.35-.38-2.02,1.57-3.3,3.68-4.37,5.95-.54,.22-.66,.66-.61,1.19l-.08,.14c-.6,0-1.2,0-1.8,0-.61-1.88-1.89-3.06-3.86-3.01-1.74,.04-2.92,1.05-3.07,2.95-4.41,.6-8.52,1.85-11.7,5.22l-.63,.81s.03-.07,.03-.07c-2.68,2.7-3.66,6.22-4.66,9.72-1.13,.26-2.75,.14-3.31,.85-2.08,2.62-5.26,3.88-7.41,6.38l-1.13,.58Z"/>
      <path class="cls-17" d="M172.45,106.6c-.5,4.33-.64,8.76-3.02,12.64-.8,.2-1.6,.4-2.4,.61-.78,0-1.18,.4-1.21,1.18-.4,0-.79,.02-1.19,.02-2.19-.23-4.04,.95-5.95,1.65-1.53,.56-2.1,.84-1.54-1.09,.24-.84,.45-1.73-.89-1.44-5.08,1.1-10.44,1.47-14.47,5.51-.54-.81-.94-1.59-1.51-2.23-1.37-1.53-6.66-2.09-7.55-.69-.93,1.46-1.94,2.94-2.3,4.71-2.82,.43-5.65,.87-8.47,1.3-.72-3.09,1.73-1.27,2.68-1.67,.89-.37,2.38,.48,2.66-1.1,.24-1.33,.4-2.78-.9-3.82-.81-.65-2.04-.94-2.01-2.32,4.09-.78,3.95,3.17,5.24,5.16,2.36-1.56,1.08-5.29,4.38-5.82,.84,.98,1.57,.64,2.15-.25,.34-.52,.41-1.2-.02-1.68-.73-.83-1.44-.06-2.14,.18-1.52-2.56,.95-3.52,2.19-4.97-1.07-.76-2.04-.38-2.99-.25-.89-.04-1.78-.09-2.67-.13-.67-.01-1.33-.02-2-.04-3.57-.01-7.14-.02-10.7-.04-1.02,0-2.05-.01-3.07-.02-.36,0-.72,.01-1.08,.02-2.49-.97-4.58-.56-6.1,1.79-.5-.01-.95-.12-1.22-.61,.2-1.28-.57-2.15-1.55-2.53-.61-.24-.75,.7-.82,1.29-1.2-.19-2.4-.39-3.6-.58-.02-.37-.04-.74-.06-1.1,.6-.22,1.21-.45,1.81-.67,.16,.32,.31,.64,.47,.95,.12-.08,.24-.16,.35-.23l-.78-.75c1.63-1.52,3.32,.65,4.96-.07,1.27,.51,2.55,.96,3.95,.54,4.03,.74,7.82-1.72,11.64-1.22,4.35,.57,8.32-.43,12.42-1.16,.24,0,.49,0,.73-.01,.32,.04,.64,.07,.96,.11-.22,2.76,1.76,1.64,3.05,1.73,2.06-.16,4.12-.34,6.18-.48,1.02-.07,.73-.67,.57-1.24,4.09,.02,8.19,.18,12.09-1.41,.75,.02,1.5,.04,2.24,.06,.67,1.1,1.82,.93,2.68,.66,2.05-.65,4.15-.37,6.2-.67,.8,1.29,1.75,.03,2.62,.16Zm-8.71,2.54c-2.05,.37-4.15,.56-6.12,1.18-1.24,.39-3.24-.21-3.63,1.34-.44,1.73,1.91,1.32,2.66,2.31,.3,.39,.68,.74,1.07,1.04,1.16,.9,2.2,1.72,3.19-.36,.27-.57,.69-1.96,2.41-1.37,.8,.28,2.01-1.38,1.93-2.89-.05-1.01-.55-1.44-1.52-1.26Z"/>
      <path class="cls-6" d="M142.43,209.44c-1.62,.02-3.24,.03-4.86,.05-.54-2.11,1.9-2.06,2.65-3.34-2.87-.74-5.46,.47-8.07,.32-2.07-.12-3.12,.63-3.61,2.5-4.13-.71-8.24-1.51-12.01-3.47,.2-1.52-1.32-2.07-1.78-3.22,1.76-1.04,3.91-.35,5.68-1.23,1.42-.71,3.37-1.14,1.95-3.6-.95-1.63,.3-1.97,1.53-1.6,2.35,.71,2.74-.91,2.52-2.36-.19-1.29-.97-3.18-1.94-3.52-3.01-1.07-2.96-3.38-3.11-5.76,1.18-.28,2.07,.47,3.06,.87,2.11,.85,4.2,1.73,6.54,1.59,1.62,1.25,3.21-.18,4.82-.07,2.55,1.23,4.28-1.33,6.54-1.42,3.47,5.09,2.52,9.23-3.3,12.24,1.57,.7,2.33,.03,3.15-.16,.76-.17,1.57-.7,2.2,.02,.53,.61-.17,1.29-.28,1.95-.34,2.04-.74,4.06-1.12,6.09-.75,.14-2.21-.23-1.27,1.33,.56,.92,.66,1.82,.71,2.8Zm-5.01-10.53c-3.01,.37-5.37,2.07-8.04,2.57-2.8,.52-5.69,.59-8.54,.85-.52,.05-1.04,.17-1.1,.77-.08,.81,.55,1.03,1.16,.98,1.48-.14,2.65,.38,3.77,1.32,.8,.68,2.14,.94,2.8,.32,2.37-2.26,5.25-3.34,8.23-4.39,.74-.26,1.48-.99,1.72-2.41Z"/>
      <path class="cls-8" d="M121.38,184.2c.15,2.38,.1,4.69,3.11,5.76,.97,.35,1.75,2.24,1.94,3.52,.22,1.45-.18,3.07-2.52,2.36-1.23-.37-2.47-.03-1.53,1.6,1.43,2.46-.52,2.89-1.95,3.6-1.77,.89-3.92,.19-5.68,1.23-.39,0-.78-.02-1.17-.03-.12-.6-.3-1.16-1.09-1.03-.62,.1-.65,.62-.71,1.1-.19,.02-.38,.02-.57,.02-.22,.19-.44,.38-.66,.56-3.43-2.57-5.49-5.58-5.57-10.29-.1-5.02-1.39-10.02-2.16-15.02,.72-.11,2.16,.26,1.97-.56-.42-1.85-.05-4.11-2-5.41-1.52-2.43-1.24-5.15-1.27-7.82,.43-.02,.86-.05,1.29-.07,.84,.06,1.43,.48,1.76,1.25,1.67,6.49,1.84,13.67,8.45,17.85,1.8,1.14,3.97,.83,5.81,1.85,.67,.37,1.29-.68,1.34-1.58,.7,.04,1.12,.4,1.23,1.1Z"/>
      <path class="cls-4" d="M142.99,205.31c.38-2.03,.78-4.05,1.12-6.09,.11-.66,.81-1.34,.28-1.95-.63-.73-1.44-.2-2.2-.02-.82,.19-1.58,.86-3.15,.16,5.82-3,6.77-7.15,3.3-12.24,2.49-1.29,4.81-2.84,6.97-4.64,.76-.16,1.55-.24,2.29-.48,4.27-1.41,4.29-1.43,5.81,3.07,.58,1.73,1.26,.71,1.84,.12,1.22-1.21,1.41-3.33,3.42-3.84-.77,5.63-1.55,11.25-2.32,16.88-.85-.06-1.41,.27-1.98,.97-3.96,4.89-9.51,6.8-15.38,8.06Z"/>
      <path class="cls-15" d="M96.63,128.15c-.14-1.12-1.26-2.27,.11-3.34,.48,.99,1.57,1.13,2.37,1.68,1.54,1.05,3.09,3.84,4.92,.25,.03-.06,.7,.21,1.08,.33,0,0,.04,.02,.04,.02,.35,.84,.96,1.18,1.85,.97,.19,.07,.37,.14,.56,.21,.2,.47,.56,.72,1.08,.72,0,0,0,.03,0,.03,.36,1.24,1.28,1.45,2.44,1.54,1.23,.09,2.43,.46,3.65,.71,0,.18,0,.35-.02,.53-1.87,.59-3.34,1.74-4.6,3.2-3.33,3.86-5.03,8.31-5,13.43,0,1.13,.42,2.5-1.34,2.8-1.57-.33-2.26-1.43-3.14-2.72-.9-1.31-.08-3.3-1.86-4.06-.03-.38-.05-.77-.08-1.15,1.27-3.26-.27-6.41-.5-9.6-.07-.99,.4-2.53-1.15-3.11-.05-.38-.1-.76-.15-1.13,.7-.58,.35-.96-.25-1.29Z"/>
      <path class="cls-4" d="M152.64,62.64c3.8,.21,7.6,.43,11.4,.64,.05,1.31,2.07,1.45,1.76,2.98-1.3,0-2.6,0-3.89,.03-.61,0-1.22,.05-1.37,.84-.21,1.15,3.55,5.62,4.54,5.2,3.09-1.32,5.15-.36,6.67,2.45,.17,.32,.87,.34,1.33,.5,.17,.21,.33,.42,.5,.64-.46,.38-.18,.48,.2,.55,.62,.73,1.18,1.49,.96,2.54-.53-.09-1.06-.17-1.59-.26-.22-1.04-1.21-1.2-1.92-1.69-.07-.65-.4-.98-1.07-1.16-2.26-.59-4.12,.66-6.13,1.21h-1.2c-1-.91-2-.9-3.01,0-.44,0-.89-.03-1.17,.42l-1.17-.1c-.03-.31-.05-.62-.08-.92,.95-1.03,.16-1.11-.64-1.19-1.08-.04-1.42-.76-1.06-1.57,.45-1.02-.42-1.36-.73-2-.46-.92,1.33-3.36-1.71-2.52-.59-.19-.57-.64-.46-1.12h3.67c-.6-2.06-2.42-1.4-3.01-2.32-.57-.89-2.21-1.33-1.5-2.89,.23-.09,.46-.18,.68-.27Z"/>
      <path class="cls-2" d="M85.34,89.18c.36-1.21,1.54-1.4,2.43-1.94,2.98-.35,6.02-2.72,8.91,.24,.05,.2,.11,.4,.16,.6,.06,.95,.13,1.89,.19,2.84,1.22,1.87,2.63,2.74,4.53,.82,1.02,.92,2.18,1.53,3.57,1.65-2,2.81-2.98,3.02-7.13,1.22,1.86,2.21-.55,3.8-.18,5.7-1.65,.25-2.71-1.13-4.13-1.52,.19-1.23-.12-2.11-1.09-3.1-1.71-1.74-4.61-1.42-5.94-4.7-.09,1.67-.13,2.35-.16,3.03-.56,.16-1.13,.33-1.69,.49-.71-1.57-3.15-3.12-.07-4.75,.39,0,.58-.21,.62-.58Z"/>
      <path class="cls-17" d="M162.68,179.41c-2.01,.51-2.21,2.63-3.42,3.84-.59,.59-1.26,1.6-1.84-.12-1.52-4.5-1.55-4.48-5.81-3.07-.74,.24-1.52,.33-2.28,.48,2.07-2.5,4.13-5.01,6.2-7.51,.65,1.38,1.86,1.22,2.79,.68,1.41-.82,2.12-2.29,2.68-3.82,.93-2.54,1.18-5.41,3.36-7.38-.14,5.67-.89,11.29-1.67,16.9Z"/>
      <path class="cls-15" d="M173.15,78.74c.53,.09,1.06,.17,1.59,.26,2.54,1.99,.39,3.6-.44,5.32-.08,.18-.11,.37-.09,.57,0,0-.02,.02-.02,.02-2.35,.69-3.96,2.33-5.38,4.22-2.37-.48-4.68-1.69-7.18-.58-.99-2.22-3.11-1.48-4.8-1.83-.8-.17-2.3,.01-1.49-1.25,.48-.75,1.07-2.74,3.32-1.37,2.97,1.82,3.17,1.5,4.76-1.02,.78,.03,1.15-.38,1.22-1.13,.35-.21,.69-.42,1.04-.64,.8,0,1.6,.01,2.41,.02-.2,.21-.37,.45-.6,.62-.65,.46-1.38,.87-1.49,1.75-.02,.16,.33,.53,.53,.54,1.07,.09,1.56-.79,2.07-1.48,.25-.34,.14-.95,.19-1.44,1.9-.1,2.34-2.7,4.37-2.58Z"/>
      <path class="cls-9" d="M141.22,51.13c1.07-2.27,2.36-4.38,4.37-5.95,.9-.7,1.51-.81,2.35,.38,1.93,2.76,2.26,6.1,3.64,9.04-.09,.11-.18,.23-.26,.35-2.59-.35-4.53,2.01-7.1,1.74-.22-.4-.44-.8-.66-1.2-.41-1.62-2.37-1.68-3.04-3.03,0,0,.08-.14,.08-.13,.6-.19,.69-.65,.61-1.19Z"/>
      <path class="cls-5" d="M172.45,106.6c-.87-.14-1.82,1.13-2.62-.16-.23-3.3-2.38-1.99-4.1-1.71-.56-1.28-1.59-1.02-2.61-.82-.3-.3-.59-.6-.89-.9,1.8-.41,3.59-.83,5.39-1.24,1.5,.04,3.01,.15,4.43-1.21-3.17,.43-.42-1.07-.79-1.6,1.04-1.06,3.21-.45,3.62-2.45,.43-.19,1.06,.03,1.27-.63,.59-.61,1.94-.12,2.08-1.15,.12-.9-.84-1.17-1.59-1.41,.1-.49,.22-1.04,.85-1.02,1.06,.03,2.16,.47,2.32,1.49,.23,1.52,2.96,2.59,.54,4.71-1.72,1.51-4.22,1.82-5.47,3.89-1.65,.34-2.6,1.77-4.23,2.38,1.05,.81,1.72-.24,2.48,.06-.11,.63,.01,1.35-.65,1.78Z"/>
      <path class="cls-7" d="M164.34,162.51c-2.19,1.97-2.43,4.83-3.36,7.38-.56,1.53-1.26,3.01-2.68,3.82-.93,.54-2.14,.7-2.79-.68,1.03-2.69,2.07-5.38,3.1-8.07,.67,.63,1.33,1.77,2.06,.08,.35-.8,.63-1.63,.94-2.45,1.59-2.93,1.56-5.96,.55-9.04,.59-2.04,1.19-4.09,1.78-6.13,.68,.36,.9,1.48,1.97,1.2,.65,1.28-.14,2.47-.25,3.7-1.47,.48-1.3,1.37-.6,2.4,.14,1.4,.15,2.79-.25,4.16-.94,.48-1.11,1.09-.32,1.87-.05,.59-.11,1.18-.16,1.77Z"/>
      <path class="cls-11" d="M93.69,98.78c1.42,.39,2.48,1.76,4.13,1.52,.78,.33,1.6,.08,1.65-.68,.21-3.02,2.33-2.69,4.29-2.58,1.71,.09,3.14-.24,3.94-1.94,.14-.01,.28-.04,.41-.1,2.04,1.06,2.4,3.38,3.74,4.96-.02,.21-.03,.42-.05,.63-.41,.42-.82,.83-1.22,1.25-1.43,.84-2.19,.16-2.71-1.16-1.1-2.75-3.47-2.56-5.79-2.48-1.1,.04-1.26,.96-1.29,1.7-.04,.95,.82,.53,1.33,.59,.41,.23,.83,.47,1.24,.7-.82,.41-1.64,.83-2.45,1.24-.66-.02-1.35-.13-1.81,.53-.76,0-1.52-.02-2.28-.03-2.41-2.2-5.61-2.19-8.51-3.03-.87-.77-2.85-.42-2.47-2.45,.23-.36,.45-.72,.68-1.08,2.43,.71,4.34,2.93,7.18,2.41Z"/>
      <path class="cls-17" d="M142.99,205.31c5.87-1.26,11.42-3.17,15.38-8.06,.57-.7,1.13-1.04,1.98-.97-.78,2.11-.26,4.83-2.83,6.11-2.33-.8-3.53,.11-4.3,3.24-3.2,2.41-7.02,3.04-10.79,3.8-.05-.98-.15-1.88-.71-2.8-.94-1.55,.52-1.18,1.27-1.33Z"/>
      <path class="cls-15" d="M165.92,148.61c-1.07,.29-1.29-.84-1.97-1.2-.89-5.12,.34-10.13,.9-15.16,.17-1.48,.37-2.93,.24-4.42,.09-.43,.17-.87,.26-1.3l1.76-1.21c.48,.01,.95,.03,1.43,.04-.15,.96-.31,1.91-.46,2.87-.07,.07-.21,.14-.2,.19,.03,.17,.11,.32,.17,.48-.03,.56-.06,1.12-.09,1.68-1.11,.41-1.25,1.05-.42,1.89-.07,1.37-.14,2.75-.22,4.12-1.44,.85-1.17,1.94-.42,3.09-.02,.38-.05,.76-.07,1.14-1.88,1.43-1.08,3.17-.55,4.87-.12,.97-.24,1.94-.36,2.91Z"/>
      <path class="cls-4" d="M95.53,120.37c-2.11-.91-1.91-3.06-2.31-4.74-.86-3.66-1.39-7.4-2.91-10.88,0,0,.17,0,.17,0,0,0,.17,0,.17,0,.09,.04,.19,.06,.26,.13q2.81,2.44,5.28,.58c-1.53,3.14,1.11,3.7,2.94,4.76-1.46,1.06-3.92,1.4-3,4.18,.04,2.01,.1,4.02-.6,5.96Z"/>
      <path class="cls-7" d="M98.77,144.43c1.78,.77,.96,2.75,1.86,4.06,.88,1.29,1.57,2.39,3.14,2.72,2.02,3.11,1.41,6.75,2,10.14-1.51-.27-2.44-.98-3.26-2.46-.88-1.58-.85-3.62-2.39-4.84-.97-3.14-1.52-6.34-1.35-9.64Z"/>
      <path class="cls-15" d="M140.53,52.46c.67,1.36,2.63,1.42,3.04,3.03-1.95-.06-3.93-1.77-5.63-.92-2.13,1.07-3.69,.34-5.46-.36-2.48-.11-5.03-.55-6.9,1.74-1.79,.29-3.31,.83-2.97,3.14v-.02c-.68,0-1.42-.17-1.8,.66-.24,.37-.48,.73-.71,1.1-1.66-.47-.03-1.73-.58-2.46,0,0-.03,.07-.03,.07,.21-.27,.42-.54,.63-.81,3.18-3.36,7.29-4.62,11.7-5.22,2.31-.35,4.6,2.2,6.92,.06,.6,0,1.2,0,1.8,0Z"/>
      <path class="cls-17" d="M173.08,75.27c-.45-.16-1.16-.19-1.33-.5-1.53-2.81-3.58-3.77-6.67-2.45-.99,.42-4.75-4.05-4.54-5.2,.15-.78,.76-.83,1.37-.84,1.3-.02,2.6-.02,3.89-.03,1.14,.65,1.23,2.62,3.05,2.4,1.94,1.87,3,4.29,4.23,6.61Z"/>
      <path class="cls-15" d="M104.15,75.31c2.12-2.5,5.31-3.75,7.39-6.38,.57-.71,2.18-.59,3.31-.85,.37,0,.74-.01,1.11-.02-.42,.79-.26,1.27,.71,1.28,.07,1.08-.33,1.89-1.34,2.36-1.26,0-2.54-.17-3.7,.53-2.44-.22-3.36,.69-2.28,3.08h.01c-.91-.05-1.76,0-1.89,1.19-.63-.14-1.25-.28-1.88-.42-.22-.19-.44-.37-.65-.56-.26-.07-.53-.14-.79-.21Z"/>
      <path class="cls-4" d="M105.11,127.07c-.37-.12-1.05-.39-1.08-.33-1.83,3.59-3.38,.8-4.92-.25-.8-.54-1.89-.68-2.37-1.68,.72-1.1-3.07-1.07-.65-2.6,2.2-.52,3.95,1.22,6.04,1.22,1.12,.67,2.25,1.33,3.03,2.43-.02,.4-.04,.8-.06,1.21Z"/>
      <path class="cls-8" d="M102.14,123.43c-2.1,0-3.84-1.74-6.04-1.22-.19-.61-.38-1.23-.57-1.84,.71-1.93,.64-3.95,.6-5.96,3.02,2.03,4.22,5.49,6.35,8.22,.08,.11-.22,.52-.34,.79Z"/>
      <path class="cls-17" d="M128.54,208.96c.49-1.87,1.54-2.62,3.61-2.5,2.61,.15,5.2-1.05,8.07-.32-.75,1.27-3.18,1.23-2.65,3.34-3.01-.23-6.08,.63-9.03-.52Z"/>
      <path class="cls-9" d="M94.68,84.25c.2-3.82,1.92-6.02,5.61-7.2-.13,2.93,1.24,6.6-3.54,7.25-.69-.02-1.38-.03-2.07-.05Z"/>
      <path class="cls-13" d="M93.69,98.78c-2.84,.52-4.75-1.71-7.18-2.41-.11-.35-.22-.71-.32-1.06,.1-.43,.2-.86,.3-1.3,.04-.68,.07-1.36,.16-3.03,1.33,3.28,4.23,2.96,5.94,4.7,.97,.99,1.29,1.87,1.09,3.1Z"/>
      <path class="cls-4" d="M168.82,89.13c1.42-1.88,3.03-3.52,5.38-4.22-.02,.84-.05,1.67-.07,2.51-1.45,.15-2.18,1.23-2.92,2.29-1.21,1.84-2.41,3.69-3.62,5.53-1.72-.43-2.1-1.17-.83-2.64,.87-1.01,1.89-2.01,2.05-3.47Z"/>
      <path class="cls-1" d="M115.95,68.06c-.37,0-.74,.01-1.11,.02,1-3.51,1.98-7.02,4.66-9.72,.55,.74-1.09,1.99,.58,2.46,.01,.29,.02,.57,.04,.86-.41,.68-1.31,1.09-1.16,2.08-.33,.71-.86,1.37-.6,2.24,0,.29,0,.58,0,.87-.2,.2-.39,.41-.59,.61-.31,.21-.62,.42-.93,.63l.18,.22-.18,.22c-.3-.16-.59-.32-.89-.48Z"/>
      <path class="cls-17" d="M100.11,154.07c1.55,1.22,1.51,3.25,2.39,4.84,.82,1.48,1.76,2.19,3.26,2.46-.03,1.41-.06,2.82-.09,4.23-.38-.21-.75-.41-1.13-.62-.33-.77-.92-1.19-1.76-1.25-.29-1.84-.67-3.65-2.34-4.82,.58-1.66-1.28-3.15-.33-4.84Z"/>
      <path class="cls-9" d="M152.64,62.64c-.23,.09-.46,.18-.68,.27-.55-.26-1.1-.51-1.64-.77-.29-.72-.47-1.52-.9-2.14-1.23-1.73-1.42-2.71,1.26-2.79,1.81-.05,1.21-1.28,.66-2.27,.09-.12,.17-.23,.26-.35,1.19,2.57,1.01,5.32,1.05,8.04Z"/>
      <path class="cls-10" d="M138.74,52.45c-2.33,2.14-4.61-.41-6.92-.06,.14-1.9,1.33-2.91,3.07-2.95,1.96-.05,3.25,1.13,3.86,3.01Z"/>
      <path class="cls-4" d="M94.68,84.25c.69,.02,1.38,.03,2.07,.05,1.39,.23,2.78,.46,4.17,.69-.04,.73-.07,1.46-.11,2.19-.12,.03-.23,.02-.34-.03,.07-.7,.12-1.44-.83-1.56-1.5-.2-2.33,.71-2.96,1.9-2.89-2.95-5.93-.59-8.91-.24,1.8-2.15,4.64-1.92,6.91-3Z"/>
      <path class="cls-10" d="M100.92,84.98c-1.39-.23-2.78-.46-4.17-.69,4.78-.65,3.42-4.32,3.54-7.25,.26-.38,.52-.77,.78-1.15,.35-.02,.52-.2,.46-.56,.65-.41,.95,.27,1.4,.46,.13,.63,.25,1.27,.38,1.9-1.21,.76-1.8,1.73-1.02,3.14-1.02,1.19,.16,3.12-1.37,4.14Z"/>
      <path class="cls-6" d="M167.03,119.85c.8-.2,1.6-.4,2.4-.61-.24,1.4,.49,2.92-.55,4.21-.61,.41-1.22,.82-1.83,1.23-.71-1.27-2.59-1.76-2.42-3.63,.4,0,.79-.02,1.19-.02,.79,0,1.19-.4,1.21-1.18Z"/>
      <path class="cls-7" d="M97.03,130.58c1.55,.58,1.08,2.12,1.15,3.11,.23,3.19,1.77,6.33,.5,9.6-1.11-4.16-1.67-8.4-1.65-12.71Z"/>
      <path class="cls-17" d="M85.84,97.45c-.37,2.03,1.6,1.68,2.47,2.45,.27,.94,1.43,1.48,1.16,2.66-2.04-.81-3.93-1.84-5.43-3.53-.65-.74-1.31-1.52-.53-2.29,.97-.96,.56,1.19,1.45,.85,.27-.1,.58-.1,.87-.14Z"/>
      <path class="cls-5" d="M89.47,102.56c.28-1.17-.89-1.72-1.16-2.66,2.9,.84,6.09,.83,8.51,3.03-1.86,.01-3.63-.9-5.52-.52-.46,.25-.55,.67-.55,1.14l-.06,.7c-.18-.01-.35-.03-.53-.06-.69-.35-.64-1.01-.69-1.63Z"/>
      <path class="cls-7" d="M171.21,89.71c.74-1.06,1.46-2.14,2.92-2.29,1.01,1.42,1.72,2.92,1.27,4.73-.63,.19-1.26,.38-1.89,.57-.23-1.42-.88-2.51-2.3-3.01Z"/>
      <path class="cls-17" d="M111.2,202.34c.19,0,.38,0,.57-.02,.6-.03,1.2-.05,1.8-.07,.39,0,.78,.02,1.17,.03,.46,1.15,1.98,1.7,1.78,3.22-2.12-.19-3.99-.9-5.45-2.52,.04-.21,.08-.42,.12-.64Z"/>
      <path class="cls-10" d="M173.51,92.72c.63-.19,1.26-.38,1.89-.57,.03,.38,.05,.75,.08,1.13-1.02,1.18-.12,1.87,.66,2.59-.2,.65-.83,.44-1.27,.63-.64-.06-1.13-.25-1.23-1.01-.19-1.46-1.16-1.69-2.39-1.43,.31-1.19,1.42-1.03,2.26-1.34Z"/>
      <path class="cls-7" d="M168.86,68.66c-1.82,.22-1.92-1.75-3.05-2.4,.31-1.53-1.72-1.66-1.76-2.98,3.45,.13,3.5,3.33,4.82,5.38Z"/>
      <path class="cls-6" d="M102.77,171.62c1.95,1.3,1.58,3.56,2,5.41,.19,.83-1.25,.45-1.97,.56,0-1.99-.02-3.98-.03-5.97Z"/>
      <path class="cls-7" d="M153.23,205.64c.77-3.14,1.98-4.05,4.3-3.24-1.18,1.42-2.65,2.45-4.3,3.24Z"/>
      <path class="cls-5" d="M100.45,158.9c1.67,1.17,2.05,2.98,2.34,4.82-.43,.02-.86,.05-1.29,.07-.8-1.53-1.28-3.14-1.06-4.89Z"/>
      <path class="cls-7" d="M166.28,145.7c-.53-1.71-1.33-3.44,.55-4.87,.15,1.66,.39,3.33-.55,4.87Z"/>
      <path class="cls-17" d="M173.1,104.82c-.75-.29-1.43,.76-2.48-.06,1.64-.61,2.58-2.04,4.23-2.38,.18,1.37-.79,1.9-1.76,2.44Z"/>
      <path class="cls-1" d="M176.14,95.87c-.78-.72-1.68-1.41-.66-2.59,.38,.01,.76,.02,1.15,.04,.75,.24,1.71,.51,1.59,1.41-.14,1.03-1.49,.53-2.08,1.15Z"/>
      <path class="cls-7" d="M166.9,139.69c-.74-1.15-1.02-2.24,.42-3.09,.25,1.08,.42,2.16-.42,3.09Z"/>
      <path class="cls-11" d="M103.31,77.7c-.13-.63-.25-1.27-.38-1.9,0,0,.06,.08,.06,.08,.65-.1,1.37,.17,1.94-.37,.22,.19,.44,.37,.65,.56-.54,.39-.39,.95-.36,1.49-.24,.05-.49,.1-.73,.15-.4,0-.79,0-1.19-.01Z"/>
      <path class="cls-17" d="M165.07,154.71c-.7-1.03-.87-1.92,.6-2.4,0,.85,.41,1.8-.6,2.4Z"/>
      <path class="cls-11" d="M101.53,75.34c.05,.36-.11,.54-.46,.56-.41-.33-1.28-.63-.57-1.26,.67-.59,1,0,1.04,.7Z"/>
      <path class="cls-7" d="M167.04,124.68c.61-.41,1.22-.82,1.83-1.23-.11,.64-.22,1.27-.32,1.91-.48-.01-.95-.02-1.43-.04-.02-.22-.05-.43-.07-.65Z"/>
      <path class="cls-7" d="M167.54,132.48c-.83-.85-.69-1.48,.42-1.89,.23,.72,.35,1.4-.42,1.89Z"/>
      <path class="cls-17" d="M164.5,160.74c-.8-.78-.62-1.39,.32-1.87,.38,.71,.47,1.36-.32,1.87Z"/>
      <path class="cls-7" d="M96.63,128.15c.6,.33,.95,.71,.25,1.29-.52-.35-.61-.78-.25-1.29Z"/>
      <path class="cls-11" d="M86.49,94.02c-.1,.43-.2,.86-.3,1.3-.57-.08-1.14-.17-1.39-.81,.57-.16,1.13-.33,1.7-.49Z"/>
      <path class="cls-15" d="M141.22,51.13c.08,.54-.01,1-.61,1.19-.05-.53,.07-.97,.61-1.19Z"/>
      <path class="cls-16" d="M104.94,75.52c-.57,.53-1.29,.27-1.94,.37,.38-.19,.75-.38,1.14-.58,.27,.07,.54,.14,.8,.21Z"/>
      <path class="cls-17" d="M90.16,104.19c.18,.02,.35,.04,.53,.06,0,.17-.01,.34-.04,.51h-.17s-.17,0-.17,0c-.1-.17-.15-.36-.15-.56Z"/>
      <path class="cls-17" d="M173.78,76.46c-.39-.07-.67-.17-.2-.55,.08,.18,.15,.36,.2,.55Z"/>
      <path class="cls-7" d="M168.06,128.9c-.06-.16-.14-.32-.17-.48,0-.05,.13-.13,.2-.19,0,.22-.02,.45-.03,.67Z"/>
      <path class="cls-13" d="M85.34,89.18c-.04,.37-.22,.59-.62,.58,.21-.19,.41-.39,.62-.58Z"/>
      <path class="cls-1" d="M120.11,57.61c-.21,.27-.42,.54-.63,.81,.21-.27,.42-.54,.63-.81Z"/>
      <path class="cls-6" d="M111.2,202.34c-.04,.21-.08,.42-.12,.64-.18-.02-.36-.04-.53-.07,.22-.19,.44-.38,.66-.56Z"/>
      <path class="cls-4" d="M174.21,84.89c-.02-.2,.02-.39,.09-.57,.05,.16,.12,.31,.15,.47,0,.02-.16,.07-.24,.11Z"/>
      <path class="cls-9" d="M165.1,127.83c.12,1.49-.08,2.93-.24,4.42-.56,5.03-1.79,10.04-.9,15.16-.59,2.04-1.19,4.09-1.78,6.13-1.77,2.31-1.98,5.11-2.41,7.83-.76,1.07-1.08,2.29-1.14,3.58-1.03,2.69-2.07,5.38-3.1,8.07-2.07,2.5-4.13,5-6.2,7.51-2.16,1.79-4.48,3.35-6.98,4.64-2.26,.09-3.99,2.65-6.54,1.42,0-.35,0-.7,.01-1.04,2.67-.68,5.2-1.71,7.68-2.88,3.46-1.38,5.93-4.18,7.88-7,7.34-10.63,10.27-22.16,5.43-34.8,2.82-.39,1.39-2.18,.88-3.27-1.23-2.6-2.78-2.98-5.02-1.54-6.87-4.06-14.23-6.07-22.25-5.23-1.1-.03-2.2-.05-3.3-.08-1.17,.08-2.48-.57-3.4,.7-.58,.12-1.16,.25-1.73,.37-.54-.8-.66-1.72-.73-2.66l.68-.4c2.82-.43,5.65-.87,8.47-1.3,3.39,.2,6.78,.4,10.17,.6,4.63,1.09,9.17,2.41,13.26,4.95,2.87,2.49,7.29,.99,8.94-3.02,.77-.72,1.55-1.44,2.32-2.16Z"/>
      <path class="cls-4" d="M140.58,128.07c-3.39-.2-6.78-.4-10.17-.6,.37-1.76,1.37-3.25,2.3-4.71,.89-1.4,6.18-.84,7.55,.69,.57,.63,.97,1.42,1.51,2.23,4.04-4.04,9.4-4.41,14.47-5.51,1.34-.29,1.13,.6,.89,1.44-.56,1.93,.01,1.64,1.54,1.09,1.91-.69,3.76-1.88,5.95-1.65-.17,1.86,1.71,2.35,2.42,3.63,.02,.22,.05,.43,.07,.65-.59,.4-1.17,.81-1.76,1.21-2.19,.17-3.05,2.4-4.85,3.15-2.09,.87-4.1,2.64-6.46,1.66-2.59-1.08-5.24-2.04-7.66-3.65-1.66-1.11-3.99-1.5-5.81,.37Z"/>
      <path class="cls-6" d="M102.14,123.43c.12-.27,.43-.69,.34-.79-2.13-2.73-3.33-6.19-6.35-8.22-.92-2.78,1.54-3.12,3-4.18,.39,.02,.78,.04,1.17,.07,.02,.37,.04,.74,.06,1.1,.03,1.41,1.12,1.91,2.08,2.61,1.43,1.04,2.82,2.18,2.86,4.19l-.1-.13,.12,.11c-.6-.1-1.45-.16-1.45,.54,0,.89,.89,.33,1.39,.41l-.02-.05c1.19,1.4,3.32,.59,4.59,2.19,2,2.53,5.19,1.97,6.68-1.01,.3-.6,.59-.98,1.25-1.04,2.53,.8,2.68,3.29,3.31,5.2,.55,1.67-1.84,1.62-2.58,2.67-.1,.15-.1,.37-.14,.56-4.48,0-8.72-1.64-13.17-1.81-.78-1.1-1.91-1.76-3.03-2.43Z"/>
      <path class="cls-11" d="M146.61,107.79c.16,.57,.45,1.17-.57,1.24-2.06,.14-4.12,.32-6.18,.48-.26-.92,1.75-1.35,.51-2.53-.9-.86-1.76-1.28-2.84-.38-2.76-.06-5.53-.36-8.24,.47-1.55-1.03-3.27-.25-4.9-.46-1.61,.43-3.23,.41-4.84,0-.98-.32-2.24,.45-2.99-.77,4.2-1.1,8.53,.07,12.82-1.05-.89-.2-1.78-.4-2.68-.59,.04-.67,.07-1.34,.11-2.01,.29-.15,.59-.31,.88-.46,1.77,1.41,3.77,.62,5.69,.59,.87,.02,1.74,.04,2.61,.05,1.49,2.78,3.17,1.03,4.81,.19,.77-.06,1.53-.12,2.3-.19,.74,.84,.26,2.83,2.29,2.47,.27,.78-.58,1.54-.01,2.32,.27,.49,.73,.59,1.23,.64Z"/>
      <path class="cls-11" d="M114.72,112.01c1.02,0,2.05,.01,3.07,.02,1.64,3.88,2.49,4.11,4.89,1.28,.1-.12,.37-.09,.56-.13,.52,.49,1.11,.71,1.85,.74,.93,.04,1.9,.48,1.91,1.47,.01,1-.65,1.81-1.79,2.04-.36,.07-.98-.22-1.06,.46,.64,.94,1.36,1.51,2.5,1.16,1.49-.29,2.43,1.78,4.1,1.05-1.5-2.72-1.46-2.78,1.22-4.74,1.03-.75,1.53-1.81,1.19-3.13,.96-.13,1.93-.5,2.99,.25-1.24,1.45-3.71,2.41-2.19,4.97,0,.58,0,1.16,0,1.74-3.3,.53-2.02,4.26-4.38,5.82-1.29-1.99-1.15-5.94-5.24-5.16-2.14,.28-3.98-.79-5.96-1.28-.27-1.51-1.45-1.05-2.39-1.1,.76-1.13,2.39-2.28-.24-3.2-1-.35-.99-1.37-1.04-2.27Z"/>
      <path class="cls-4" d="M118.4,118.58c1.97,.5,3.82,1.56,5.96,1.28-.03,1.38,1.2,1.68,2.01,2.32,1.3,1.04,1.14,2.49,.9,3.82-.28,1.57-1.77,.73-2.66,1.1-.96,.4-3.41-1.43-2.68,1.67-.23,.13-.46,.27-.68,.4-.93,.16-1.86,.32-2.79,.48-.04-.66-.08-1.32-.11-1.98,.04-.19,.04-.42,.14-.56,.74-1.06,3.13-1,2.58-2.67-.63-1.91-.78-4.4-3.31-5.2,.21-.22,.43-.44,.64-.66Z"/>
      <path class="cls-16" d="M129.29,107.07c2.71-.83,5.48-.54,8.24-.47-.24,.39-.48,.79-.72,1.18-.32-.04-.64-.07-.96-.11-.25-.26-.49-.25-.73,.01-4.1,.73-8.07,1.73-12.42,1.16-3.81-.5-7.61,1.96-11.64,1.22,.15-1.3,.09-2.44-1.71-2.24-.34-.7-2.09-.54-1.22-1.98,.58-.03,1.16-.06,1.73-.1,.65,.02,1.3,.04,1.95,.07,.38,.06,.76,.11,1.13,.17,1.92,3.21,4.22,2.29,6.6,.62,1.61,.41,3.23,.43,4.84,0,1.45,2.04,3.16,1.43,4.9,.46Z"/>
      <path class="cls-11" d="M108.14,105.84c-.87,1.45,.88,1.28,1.22,1.99-.38,1.06-2.5-.21-2.24,1.7-1.64,.72-3.33-1.45-4.96,.07l-.04,.03c-.6,.22-1.21,.45-1.81,.67-.39-.02-.78-.04-1.17-.07-1.83-1.06-4.47-1.62-2.94-4.77,.93-.73,2.03-.59,3.11-.73,2.6-.33,5.07,.83,7.65,.58,.4,.17,.8,.35,1.2,.52Z"/>
      <path class="cls-1" d="M114.72,112.01c.05,.9,.05,1.92,1.04,2.27,2.63,.92,1,2.08,.24,3.2-1.4,4.33-1.44,4.41-5.82,2.39-1.64-.76-3.29-.59-4.95-.78,0,0,.02,.05,.02,.05,.02-.32,.04-.64,.06-.96l-.12-.11s.1,.13,.1,.13c.8-.11,1.73,.16,2.27-.74,.39-.23,.78-.45,1.16-.68,2.05,.49,.71-2.22,1.96-2.18,1.9,.05,2.44-1.18,2.95-2.57,.36,0,.72-.01,1.08-.02Z"/>
      <path class="cls-7" d="M163.74,109.14c.97-.18,1.47,.25,1.52,1.26,.08,1.52-1.13,3.17-1.93,2.89-1.73-.6-2.14,.79-2.41,1.37-.99,2.08-2.04,1.26-3.19,.36-.39-.3-.77-.65-1.07-1.04-.75-.99-3.09-.57-2.66-2.31,.39-1.55,2.39-.95,3.63-1.34,1.97-.62,4.07-.81,6.12-1.18Z"/>
      <path class="cls-4" d="M146.61,107.79c-.5-.04-.96-.14-1.23-.64,2.21-.46,4.12-2,6.51-1.82,1.92,.45,3.69-.78,5.6-.49,.4,.51,.81,1.03,1.21,1.54-3.9,1.59-8,1.43-12.09,1.41Z"/>
      <path class="cls-4" d="M107.57,117.46c-.54,.9-1.47,.63-2.27,.74-.04-2.02-1.43-3.16-2.86-4.19-.96-.7-2.05-1.2-2.08-2.61,1.2,.19,2.4,.39,3.6,.58,.79,.41,1.58,.82,2.37,1.24,.27,.48,.72,.59,1.22,.61,.01,.58,.03,1.17,.04,1.75,0,.63-.02,1.26-.02,1.88Z"/>
      <path class="cls-11" d="M107.59,115.58c-.01-.58-.03-1.17-.04-1.75,1.52-2.35,3.61-2.77,6.1-1.79-.52,1.39-1.05,2.62-2.95,2.57-1.25-.04,.08,2.67-1.96,2.18,0-.77-.4-1.15-1.14-1.21Z"/>
      <path class="cls-16" d="M133.16,112.24c.34,1.32-.16,2.38-1.19,3.13-2.69,1.97-2.73,2.02-1.22,4.74-1.67,.74-2.61-1.34-4.1-1.05,2.57-.42,3.05-1.83,1.9-4.02,1.62-.33,1.56-1.78,1.94-2.93,.89,.04,1.78,.09,2.66,.13Z"/>
      <path class="cls-16" d="M123.25,113.19c-.19,.04-.46,.01-.56,.13-2.4,2.82-3.26,2.6-4.89-1.28,3.57,.01,7.14,.02,10.71,.03-.04,.82-.09,1.64-.13,2.47-1.02-3.06-3.11-2.05-5.12-1.35Z"/>
      <path class="cls-7" d="M165.73,104.73c1.72-.28,3.87-1.59,4.1,1.71-2.06,.29-4.16,.01-6.2,.67-.85,.27-2.01,.44-2.68-.66,0,0,.03,.12,.03,.12,.67-.03,1.42,.17,1.84-.62,0,0-.05,.02-.05,.02,.42,0,.83,.02,1.25,.02,.64-.33,.83-1.27,1.72-1.26Z"/>
      <path class="cls-13" d="M136.81,107.78c.24-.39,.48-.79,.72-1.18,1.09-.9,1.94-.48,2.84,.38,1.24,1.19-.77,1.61-.51,2.53-1.29-.09-3.27,1.03-3.05-1.73Z"/>
      <path class="cls-9" d="M158.71,106.38c-.4-.51-.81-1.03-1.21-1.54,1.77-.16,3.55-.31,5.32-.47,0,.34,0,.67,0,1.01-.1,.19-.12,.38-.05,.58,0,0,.05-.02,.05-.02-.7-.05-1.48-.35-1.84,.62,0,0-.03-.12-.03-.12-.75-.02-1.5-.04-2.24-.06Z"/>
      <path class="cls-1" d="M107.12,109.52c-.26-1.9,1.87-.64,2.24-1.7,1.8-.2,1.86,.94,1.71,2.24-1.4,.42-2.68-.03-3.95-.54Z"/>
      <path class="cls-7" d="M133.98,119.2c0-.58,0-1.16,0-1.74,.7-.25,1.4-1.02,2.14-.18,.42,.48,.36,1.16,.02,1.68-.58,.89-1.31,1.22-2.15,.25Z"/>
      <path class="cls-11" d="M128.37,114.53c.04-.82,.09-1.65,.13-2.47,.67,.01,1.33,.02,2,.04-.38,1.15-.32,2.6-1.94,2.93-.1-.15-.17-.32-.19-.5Z"/>
      <path class="cls-11" d="M106.33,113.22c-.79-.41-1.58-.82-2.37-1.24,.07-.59,.21-1.53,.82-1.29,.97,.38,1.75,1.25,1.55,2.53Z"/>
      <path class="cls-4" d="M167.03,119.85c-.03,.78-.43,1.18-1.21,1.18,.03-.78,.43-1.18,1.21-1.18Z"/>
      <path class="cls-11" d="M102.16,109.59l.78,.75c-.12,.08-.24,.16-.35,.23-.16-.32-.31-.64-.47-.95,0,0,.04-.03,.04-.03Z"/>
      <path class="cls-13" d="M135.13,107.69c.24-.27,.48-.27,.73-.01-.24,0-.49,0-.73,.01Z"/>
      <path class="cls-8" d="M137.42,198.91c-.25,1.41-.98,2.15-1.72,2.41-2.98,1.05-5.86,2.13-8.23,4.39-.66,.63-2,.36-2.8-.32-1.12-.95-2.29-1.46-3.77-1.32-.61,.06-1.24-.16-1.16-.98,.06-.61,.58-.72,1.1-.77,2.85-.26,5.74-.33,8.54-.85,2.67-.5,5.03-2.2,8.04-2.57Z"/>
      <path class="cls-9" d="M121.38,184.2c-.11-.7-.53-1.06-1.23-1.1-.06-.23-.12-.46-.17-.69,.26-.05,.53-.09,.79-.14,3.34,1.26,6.43,3.29,10.18,3.32l.03,1.07c-2.34,.13-4.43-.74-6.54-1.59-.98-.4-1.88-1.15-3.06-.87Z"/>
      <path class="cls-15" d="M130.98,186.66c0-.36-.02-.71-.03-1.07,1.62-.01,3.24-.03,4.86-.04,0,.35,0,.7-.01,1.04-1.61-.11-3.2,1.32-4.82,.07Z"/>
      <path class="cls-6" d="M119.98,182.41c.06,.23,.12,.46,.17,.69-.06,.89-.67,1.95-1.34,1.58-1.84-1.02-4.01-.71-5.81-1.85-6.62-4.18-6.78-11.36-8.45-17.85,.38,.21,.75,.41,1.13,.62,.81,1.44,1.62,2.88,2.43,4.32,.44,1.62,.88,3.24,1.33,4.87v.84c.17,.25,.36,.5,.54,.75h0c.25,.19,.5,.37,.74,.55h.22s.21,.08,.21,.08c1.45,2.5,3.89,3.72,6.33,4.94,.67,.33,.82-.2,.88-.73,.19,0,.39,0,.58,0,0,.69,.24,1.18,1.03,1.18Z"/>
      <path class="cls-6" d="M113.57,202.25c-.6,.02-1.2,.05-1.8,.07,.06-.48,.1-1,.71-1.1,.79-.13,.97,.43,1.09,1.03Z"/>
      <path class="cls-9" d="M108.11,169.92c-.81-1.44-1.62-2.88-2.43-4.32,.03-1.41,.06-2.82,.09-4.23-.59-3.4,.02-7.03-2-10.14,1.76-.3,1.35-1.67,1.34-2.8-.03-5.12,1.67-9.57,5-13.43,1.26-1.46,2.73-2.62,4.6-3.2,.23,.85,.45,1.71,.68,2.56-1.58,1.5-3.61,2.36-5.01,4.17-4.11,5.32-4.37,11.36-3.79,17.65,.5,5.46,2.51,10.45,4.55,15.44-1.34,.02-1.87-1.39-3.02-1.71Z"/>
      <path class="cls-8" d="M118.34,127.68c.04,.66,.08,1.32,.11,1.98-.43,.14-.86,.27-1.3,.41-2.69-1.55-5.61-1.31-8.52-1.04,0,0,0-.03,0-.03-.1-.63-.55-.73-1.08-.72-.19-.07-.37-.14-.56-.21-.23-1.07-1.03-1.03-1.85-.97,0,0-.04-.02-.04-.02,.02-.4,.04-.8,.06-1.21,4.45,.17,8.7,1.82,13.17,1.81Z"/>
      <path class="cls-1" d="M117.16,130.07c.43-.14,.86-.27,1.3-.41,.93-.16,1.86-.32,2.79-.48,.07,.93,.19,1.85,.73,2.65-1.21,.4-2.43,.79-3.64,1.19-.32-.44-.46-.23-.54,.15l.04-.06c-.21,.14-.43,.28-.64,.42-.6,.27-1.2,.55-1.8,.82-.23-.85-.45-1.71-.68-2.56,.02-.18,.02-.35,.02-.53,.85-.32,1.79-.46,2.43-1.2Z"/>
      <path class="cls-4" d="M117.16,130.07c-.64,.74-1.58,.88-2.43,1.2-1.22-.25-2.42-.62-3.65-.71-1.16-.09-2.08-.29-2.44-1.54,2.91-.26,5.83-.5,8.52,1.05Z"/>
      <path class="cls-4" d="M105.15,127.09c.82-.07,1.62-.11,1.85,.97-.89,.21-1.5-.13-1.85-.97Z"/>
      <path class="cls-4" d="M107.56,128.27c.52,0,.98,.09,1.08,.72-.52,0-.88-.25-1.08-.72Z"/>
      <path class="cls-15" d="M154.97,71.75c.31,.63,1.18,.97,.73,2-.36,.82-.02,1.53,1.06,1.57,.03,.5,.07,.98,.64,1.19,.03,.31,.05,.62,.08,.93-.7,1.52-.52,3.69-2.91,3.97-.52-1.54,2.23-1.55,1.46-3.25-2.9,.35-5.03,1.88-6.49,4.41-.33-.19-.97-.49-.95-.55,.65-1.89-.49-2.3-1.96-2.47l.58-1.84c3.68-.31,4.24-1.28,2.37-4.16,1.08-.62,1.47-1.13,.2-2.14-1.7-1.35-2.92-3.17-3.82-5.17,.98-.59,1.96-1.18,2.94-1.77,1.38,1.14,3.28,1.71,3.89,3.67-.1,.48-.13,.92,.46,1.12-1.18,1.37-1.53,2.8-.28,4.37,.74-.53,.7-1.93,1.99-1.84Z"/>
      <path class="cls-9" d="M154.57,81.4c2.39-.27,2.21-2.44,2.91-3.97,.39,.03,.78,.06,1.17,.1,.23,.37,.46,.73,.69,1.1,.16,1.13-1.25,1.75-.93,3.39,1.03-1.68,4.22,.31,3.84-3.06,.78-.02,1.56-.03,2.34-.05,.05,1.04,.75,1.24,1.61,1.23l-.52,1.17c-.35,.21-.69,.42-1.04,.64-.77-.02-1.18,.35-1.22,1.13-1.59,2.52-1.78,2.84-4.76,1.02-2.25-1.38-2.83,.62-3.32,1.37-.82,1.26,.69,1.08,1.49,1.25,1.69,.35,3.82-.39,4.8,1.83-3.26,.55-6.43-1.41-9.7-.32-.44-.21-1.03-.21-1.11-.87,3-.88,2.42-4.02,3.74-5.96Z"/>
      <path class="cls-7" d="M165.68,81.31c.17-.39,.34-.78,.52-1.17,.09-.42,.18-.83,.28-1.25,1.59-.61,3.52-.3,4.75-1.84,.71,.48,1.7,.64,1.92,1.69-2.03-.12-2.47,2.47-4.37,2.58-.23,0-.46,0-.69,0-.8,0-1.6-.01-2.41-.02Z"/>
      <path class="cls-17" d="M152.8,68.12c-.61-1.96-2.52-2.53-3.89-3.67,.47-.77,.94-1.54,1.41-2.3,.55,.26,1.1,.51,1.64,.77-.71,1.56,.94,2,1.5,2.89,.59,.92,2.41,.26,3.01,2.32h-3.67Z"/>
      <path class="cls-17" d="M171.23,77.06c-1.23,1.54-3.17,1.23-4.75,1.84-.21-.08-.42-.16-.62-.25-.07-1.16-1.47-.73-1.83-1.54,2.01-.55,3.88-1.8,6.13-1.21,.67,.17,1,.5,1.07,1.16Z"/>
      <path class="cls-17" d="M154.97,71.75c-1.29-.08-1.25,1.32-1.99,1.84-1.25-1.56-.9-2.99,.28-4.37,3.03-.83,1.25,1.61,1.71,2.52Z"/>
      <path class="cls-7" d="M164.02,77.11c.36,.81,1.76,.38,1.83,1.54-.42,.09-.84,.18-1.26,.27-.78,.02-1.56,.03-2.34,.05-.22-.11-.44-.22-.67-.33,.41-.5,.83-1.01,1.24-1.51h1.2Z"/>
      <path class="cls-17" d="M162.82,77.12c-.41,.5-.83,1.01-1.24,1.52-.38,0-.76,0-1.13-.01-.21-.5-.42-1.01-.64-1.51,1-.91,2.01-.92,3.01,0Z"/>
      <path class="cls-7" d="M159.81,77.11c.21,.5,.42,1.01,.64,1.51-.37,0-.74,0-1.12,0-.23-.37-.46-.73-.69-1.1,.28-.45,.73-.41,1.17-.42Z"/>
      <path class="cls-17" d="M157.4,76.51c-.57-.2-.61-.69-.64-1.19,.8,.08,1.59,.16,.64,1.19Z"/>
      <path class="cls-4" d="M105.13,93.38c-1.39-.12-2.55-.73-3.57-1.65,.39-1.3,1.36-2.41,1.32-3.86,.65,.17,1.32,.54,1.95,.47,2.74-.31,2.81,1.41,2.54,3.29-.11,.74-.63,1.42-.96,2.13-.43-.13-.85-.25-1.28-.38Z"/>
      <path class="cls-13" d="M105.13,93.38c.43,.13,.85,.25,1.28,.38,.27,.24,.55,.49,.82,.73,.16,.2,.32,.4,.48,.6-.8,1.7-2.23,2.04-3.94,1.94-1.97-.11-4.08-.43-4.29,2.58-.05,.76-.86,1.01-1.65,.68-.36-1.9,2.04-3.49,.18-5.71,4.15,1.8,5.13,1.59,7.13-1.22Z"/>
      <path class="cls-10" d="M102.89,87.87c.03,1.45-.94,2.56-1.32,3.86-1.9,1.92-3.31,1.05-4.53-.82,2.41,.17,2.43-1.29,2.04-3.02,.47-.25,.93-.5,1.4-.76,.11,.05,.22,.06,.34,.03,.63,.24,1.27,.49,1.9,.73l.17-.03Z"/>
      <path class="cls-15" d="M100.47,87.14c-.47,.25-.93,.5-1.4,.76-.74,.06-1.48,.12-2.23,.18-.05-.2-.11-.4-.16-.6,.63-1.2,1.46-2.1,2.96-1.9,.95,.12,.9,.86,.83,1.56Z"/>
      <path class="cls-1" d="M96.85,88.08c.74-.06,1.48-.12,2.23-.18,.39,1.73,.37,3.19-2.04,3.02-.06-.95-.12-1.89-.19-2.84Z"/>
      <path class="cls-7" d="M151.94,88.23c3.27-1.09,6.45,.87,9.7,.32,2.5-1.11,4.81,.09,7.18,.58-.17,1.46-1.19,2.46-2.05,3.47-1.27,1.47-.9,2.22,.83,2.64,0,.5,.09,.96,.57,1.24,.24,.34,.47,.69,.71,1.03-1.22-.12-2.92,.32-3.4-1-.72-1.99-2.26-2.1-3.82-2.73-3.47-1.39-7.58-1.77-9.7-5.55Z"/>
      <path class="cls-17" d="M168.09,81.33c.23,0,.46,0,.69,0-.05,.49,.06,1.1-.19,1.44-.51,.69-1,1.57-2.07,1.48-.2-.02-.55-.38-.53-.54,.12-.88,.84-1.29,1.49-1.75,.23-.16,.4-.41,.6-.62Z"/>
      <path class="cls-1" d="M163.42,83.08c.04-.77,.45-1.15,1.22-1.13-.07,.74-.44,1.16-1.22,1.13Z"/>
      <path class="cls-10" d="M150.32,62.14c-.47,.77-.94,1.54-1.41,2.3-.98,.59-1.96,1.18-2.94,1.77-1.01,.59-2.02,1.19-3.03,1.78-1.04,.19-1.27-.73-1.74-1.31-.49-.59-.95-.94-1.72-.39-.94,.66-.12,1.22,.08,1.77,.33,.92,1,1.44,2.05,1.24,.15,.92,.45,1.78,1.13,2.46-.06,2.45-1.1,4.46-2.78,6.19-.4-.04-.79-.07-1.19-.11-1.01-1.15-2.71-.46-3.79-1.42,.3-1.76-.44-3.96,2.02-4.81,2.85,1.99,2.99,1.94,3.8-1.75-1.27,.79-2.55,.61-3.8,.73-1.05-3.71-4.68-3.19-7.24-4.41-.54-1.95-2.19-1.83-3.5-1.5-1.46,.37-2.88,.42-4.34,.43,1.16-3.05,3.83-1.51,5.86-1.92,.23-.05,.47-.07,.77-.11-.49-.77-1.96-.08-1.84-1.55,1.71,.14,3.38,.34,5.05,.4,.87,.03,2.15,.6,2.2-1.11,2.27,.06,4.55,.01,6.58,1.28l.02-.05c.2,.25,.41,.49,.61,.74,1.04,.16,.7-.84,1.06-1.26-1.68-1.3,.08-2.46,.15-3.68,.83-.06,1.43-.47,1.84-1.18,2.57,.27,4.51-2.09,7.1-1.74,.56,1,1.15,2.22-.66,2.27-2.68,.07-2.48,1.06-1.26,2.79,.44,.62,.61,1.42,.9,2.14Z"/>
      <path class="cls-16" d="M144.23,56.69c-.41,.71-1.01,1.12-1.84,1.18-2.15-1.28-4.24-.35-6.47-.05,.52,1.15,1.31,1.47,2.24,1.45,2.01-.04,2.49,1.15,2.39,2.85-2.03-1.27-4.32-1.22-6.58-1.28,0,0,.03,.03,.03,.03-1.28-2.27-3.68-1.01-5.46-1.73,.7-1.53-.37-1.28-1.24-1.23-1.57,.4-3.14,.79-4.7,1.19-.34-2.31,1.18-2.85,2.97-3.14,2.39-.23,4.95,.22,6.9-1.74,1.77,.7,3.33,1.43,5.46,.36,1.7-.86,3.68,.85,5.63,.92,.22,.4,.44,.8,.66,1.2Z"/>
      <path class="cls-17" d="M151.94,88.23c2.13,3.78,6.24,4.16,9.7,5.55,1.57,.63,3.1,.75,3.82,2.73,.48,1.32,2.18,.87,3.4,1,.16,.03,.31,.07,.46,.14,.43,.79,1.25,.47,1.89,.66,.01,.21,.02,.43,.03,.64,.37,.53-2.38,2.03,.79,1.6-1.42,1.37-2.93,1.25-4.43,1.21-2-.59-3.67-2.29-5.99-1.77-.3-4.37-2.22-6.29-7.24-7.22-.19-.01-.38-.02-.57-.03-.04-.78-.44-1.18-1.22-1.19-2.26-2.08-6.88-1.18-6.93-6.75-1.26,2.68-2.26,4.29-3.89,1.55,2.77-1.99,.34-2.57-.93-3.46-.02-.16-.07-.31-.17-.45,.07-.18,.13-.37,.18-.56,1.23,0,2.16,.67,3.15,1.29,1.48,.93,1.28-.26,1.32-1.12,.38-.03,.76-.06,1.14-.09,1.53,1.51,1,4.91,4.34,4.75,0,.21,.02,.42,.03,.63,.08,.66,.67,.67,1.11,.87Z"/>
      <path class="cls-17" d="M162.81,104.37c-1.77,.16-3.55,.31-5.32,.47-1.91-.29-3.68,.94-5.6,.49-2.09-1.12-4.34-.27-6.5-.5-2.03,.36-1.55-1.63-2.29-2.47,.09-.16,.14-.33,.17-.52,.65,.04,1.24-.04,1.58-.7,.59,0,1.17,0,1.76,.01,2.79,1.58,5.59,.04,8.38-.01,.8,0,1.6,.02,2.4,.03,1.2,1.72,2.92,2.03,4.84,1.83,.3,.3,.59,.6,.89,.9-.14,.13-.24,.28-.3,.47Z"/>
      <path class="cls-7" d="M162.22,103c-1.92,.2-3.64-.11-4.84-1.83,.77-2.69,2.84-.75,4.24-1.19,2.32-.52,3.99,1.18,5.99,1.77-1.8,.41-3.59,.83-5.39,1.24Z"/>
      <path class="cls-11" d="M171.26,98.95c-.01-.21-.02-.43-.03-.64,.01-1.42,.02-2.83,.03-4.24,1.24-.26,2.21-.04,2.39,1.43,.1,.76,.59,.95,1.23,1.01-.41,2-2.57,1.39-3.62,2.45Z"/>
      <path class="cls-15" d="M162.81,104.37c.06-.18,.16-.34,.3-.47,1.02-.2,2.06-.45,2.61,.83-.89-.02-1.08,.93-1.72,1.26-.21-.58-.76-.49-1.2-.61,0-.34,0-.67,0-1.01Z"/>
      <path class="cls-15" d="M159.75,161.38c.44-2.72,.64-5.52,2.41-7.83,1.01,3.09,1.04,6.11-.55,9.04-.64-.38-.92-1.31-1.86-1.21Z"/>
      <path class="cls-1" d="M159.75,161.38c.95-.1,1.23,.83,1.86,1.21-.31,.82-.59,1.65-.94,2.45-.74,1.69-1.4,.55-2.06-.08,.06-1.3,.38-2.51,1.14-3.58Z"/>
      <path class="cls-8" d="M107.23,94.49c-.27-.24-.55-.49-.82-.73,.33-.71,.85-1.39,.96-2.13,.28-1.88,.2-3.6-2.54-3.29-.62,.07-1.3-.3-1.95-.47,0,0-.17,.03-.17,.03,.01-.67,.29-1.2,.81-1.6,1.5-.04,1.27-.91,1.15-2.01-.25-2.18-1.45-4.36-.17-6.58,.24-.05,.49-.1,.73-.15,.77,.48,1.54,.96,2.31,1.43,.54,1.8-1.32,4.38,1.73,5.37-.03,1.48,.91,2.03,2.18,2.3,1.9,.4,3.8,.82,5.7,1.23,.9,.41,1.99,1.92,2.74,.61,.83-1.44,2.55-2.3,2.69-4.15,1.19,.76,2.19,.61,3.15-.47,.99-1.11,2.1-2.13,3.17-3.17,.64-.62,1.44-.81,2.19-.35,.69,.43,.62,1.27,.42,1.91-.75,2.36-1.42,4.79-4.16,5.75-.85,.3-1.76,.88-1.51,1.93,.26,1.08,1.36,1.05,2.25,.95,.57-.06,1.12-.37,1.67-.56,1.81,.23,3.57,.87,5.43,.6,1.45,.22,2.53,1.63,4.16,1.3,1.4,1.49,2.24,3.18,1.84,5.31-1.27,.16-2.4-.38-3.58-.68-.44-2.06-2.4-.66-3.48-1.55-2.74-2.26-2.67-2.09-4.51,1.07-1.73,2.97-4.46,4.63-7.98,4.76-.72,.03-1.4-.11-1.81-.81-.34-.59-.34-1.34,.21-1.61,2.85-1.39,1.64-3.61,1.31-5.7-.29-1.89-1.17-1.82-2.42-.86-.8-.3-1.62-.56-2.39-.91-2.44-1.1-3.79-.19-3.57,2.48,.05,.67,.25,1.33,.38,1.99-1.32,.38-.82,1.04-.24,1.66,1.81,1.96,1.05,2.63-1.26,2.55-1.34-1.58-1.71-3.9-3.74-4.96-.3-.17-.59-.34-.89-.51Z"/>
      <path class="cls-6" d="M111.87,99.96c2.3,.08,3.07-.59,1.26-2.55-.58-.63-1.08-1.29,.24-1.66,1.2,1.95,2.8,3.38,5.13,2.16,2.43-1.27,1.35-3.3,.57-5.13-.08-.18-.07-.39-.11-.59,1.25-.96,2.13-1.03,2.42,.86,.33,2.09,1.53,4.31-1.31,5.7-.55,.27-.55,1.02-.21,1.61,.4,.7,1.08,.83,1.81,.81,3.52-.13,6.26-1.79,7.98-4.76,1.84-3.17,1.76-3.33,4.51-1.07,1.07,.88,3.03-.51,3.48,1.55-3.09,.18-5.45,1.22-7.75,3.31-.57,.52-1.28,.89-1.92,1.32-.1,.05-.18,.12-.25,.2-.29,.15-.59,.31-.88,.46-2.92-.1-5.86,.12-8.77-.39-1.13-.2-1.68,.41-1.55,1.58-.1,.04-.2,.09-.3,.13,.29-3.62-2.25-2.95-4.38-2.9,.02-.21,.03-.42,.05-.63Z"/>
      <path class="cls-6" d="M106.94,105.32c-2.58,.25-5.04-.91-7.65-.58-1.07,.14-2.18,0-3.11,.73q-2.47,1.86-5.28-.58c-.07-.06-.17-.08-.26-.13,.03-.17,.04-.34,.04-.51,.02-.23,.04-.46,.05-.7,.46-.24,.54-.67,.55-1.14,1.89-.38,3.66,.53,5.52,.52,.76,0,1.52,.02,2.29,.03,.57,.76,1.18,.81,1.82,.09,2,.19,4,.39,6,.58,0,.56,0,1.13,.01,1.69Z"/>
      <path class="cls-17" d="M106.93,103.63c-2-.19-4-.39-6-.58,0-.21,0-.41,0-.62,.82-.41,1.64-.83,2.45-1.24,.72-.24,2.16,.47,2.03-.86-.11-1.18-1.46-1.01-2.43-.89-.58,.07-.74,.55-.84,1.05-.51-.07-1.37,.36-1.33-.59,.03-.74,.2-1.66,1.29-1.7,2.31-.08,4.69-.27,5.79,2.48,.53,1.32,1.29,2,2.71,1.16,.37,.55,.74,1.09,.45,1.8-1.37,0-2.74,0-4.11-.01Z"/>
      <path class="cls-16" d="M111.04,103.64c.29-.71-.08-1.26-.45-1.8,.41-.42,.82-.83,1.22-1.25,2.13-.05,4.67-.72,4.38,2.9-1.64,.04-3.28,.07-4.92,.11l-.23,.04Z"/>
      <path class="cls-4" d="M102.13,100.5c.1-.5,.26-.98,.84-1.05,.97-.12,2.32-.29,2.43,.89,.13,1.33-1.3,.61-2.03,.86-.41-.23-.83-.47-1.24-.7Z"/>
      <path class="cls-5" d="M100.92,102.44c0,.2,0,.41,0,.62-.64,.72-1.25,.68-1.82-.09,.46-.66,1.15-.55,1.81-.53Z"/>
      <path class="cls-4" d="M107.23,94.49c.3,.17,.59,.34,.89,.51-.13,.05-.27,.08-.42,.1-.16-.2-.32-.4-.48-.6Z"/>
      <path class="cls-17" d="M140.58,128.07c1.82-1.87,4.15-1.48,5.81-.37,2.42,1.61,5.07,2.57,7.66,3.65,2.36,.98,4.38-.79,6.46-1.66,1.81-.75,2.66-2.99,4.85-3.15-.09,.44-.17,.87-.26,1.31-.78,.72-1.55,1.44-2.32,2.16-2.83,1.46-5.58,3.14-8.94,3.02-4.09-2.54-8.63-3.86-13.26-4.95Z"/>
      <path class="cls-10" d="M132.48,54.21c-1.95,1.96-4.51,1.51-6.9,1.74,1.87-2.3,4.43-1.86,6.9-1.74Z"/>
      <path class="cls-10" d="M122.6,59.09c1.57-.4,3.14-.79,4.7-1.19-1.24,1.97-4.04,1.02-5.34,2.87-.21,.22-.42,.44-.63,.66l-.02-.05c-.4,.1-.79,.2-1.19,.3-.01-.29-.02-.57-.04-.86,.24-.37,.48-.73,.71-1.1,.65-.07,1.37,.03,1.8-.66v.02Z"/>
      <path class="cls-16" d="M122.6,59.07c-.43,.69-1.15,.59-1.8,.66,.38-.83,1.12-.66,1.8-.66Z"/>
      <path class="cls-10" d="M111.63,72.22c1.16-.69,2.44-.53,3.7-.53,.02,.35,.05,.69,.07,1.04-.44,1.4-.82,2.81-.77,4.3-.76,.38-1.54-1.2-2.3,.02-1.4,.24-2.35-.16-2.49-1.73,.69-.98,1.56-1.86,1.78-3.11Z"/>
      <path class="cls-16" d="M109.84,75.33c.14,1.57,1.1,1.97,2.49,1.73,.24,.59,.48,1.18,.72,1.77-1.28,.45-2.56,.89-3.84,1.34-.92,.14-.97-.99-1.68-1.16-.77-.48-1.54-.96-2.31-1.43-.03-.53-.18-1.09,.36-1.49,.63,.14,1.25,.28,1.88,.42,.92,.05,1.81,.06,1.89-1.21,0,0-.01,.01-.01,.01,.17,0,.33,.01,.5,.02Z"/>
      <path class="cls-11" d="M115.4,72.74c-.02-.35-.05-.69-.07-1.04,1-.47,1.41-1.28,1.34-2.36,.06-.27,.12-.53,.18-.79l.18-.22s-.18-.22-.18-.22c.35,.01,.69,.03,1.04,.04,.37-.03,.74-.07,1.12-.1,.13,.18,.27,.36,.4,.53-.72,.1-1.05,.57-1.19,1.23-.37,.1-.78,.14-.85,.62-.01,.07,.08,.16,.13,.25,.29-.22,.58-.44,.87-.66,.89,.47,1.67,.92,.35,1.87-1.01,.72-2.02,1.26-3.3,.85Z"/>
      <path class="cls-1" d="M109.84,75.33c-.17,0-.33-.02-.5-.02-1.08-2.4-.15-3.3,2.28-3.08-.22,1.25-1.09,2.13-1.78,3.1Z"/>
      <path class="cls-1" d="M109.36,75.29c-.07,1.27-.97,1.26-1.89,1.21,.12-1.2,.98-1.25,1.89-1.21Z"/>
      <path class="cls-16" d="M116.84,68.54c-.06,.26-.12,.53-.18,.79-.98-.01-1.13-.48-.71-1.28,.3,.16,.59,.32,.89,.48Z"/>
      <path class="cls-16" d="M171.25,94.06c0,1.41-.02,2.83-.03,4.24-.64-.19-1.46,.13-1.89-.66,.64-.4,.74-.89,.21-1.44-.56-.57-1.03-.4-1.38,.27-.49-.28-.56-.74-.57-1.24,1.21-1.84,2.41-3.69,3.62-5.53,1.42,.5,2.07,1.59,2.3,3.01-.83,.32-1.95,.15-2.26,1.34Z"/>
      <path class="cls-16" d="M120.12,61.68c.4-.1,.79-.2,1.19-.29,.11,.54,.07,1.35,.72,1.38,.87,.03,.37-.84,.53-1.29,3.78-.75,7.61-.73,11.44-.6,0,0-.03-.03-.03-.03-.05,1.71-1.33,1.14-2.2,1.11-1.67-.06-3.34-.26-5.05-.4-.12,1.48,1.35,.79,1.84,1.55-.3,.04-.54,.06-.77,.11-2.03,.41-4.69-1.12-5.86,1.92,0,0-.01,.11-.01,.11-.19,.18-.38,.37-.58,.55-.37-.04-.74-.07-1.12-.11-.24-.23-.47-.46-.71-.69,.07-.53-.07-.96-.56-1.24-.15-.99,.76-1.4,1.16-2.08Z"/>
      <path class="cls-10" d="M119.52,65c.24,.23,.47,.46,.71,.69,0,.22,.01,.45,.02,.67-.38,.15-.77,.3-1.15,.45-.24,.03-.48,.06-.72,.09l-.02-.02c0-.29,0-.58,0-.87,.39-.33,.77-.67,1.16-1Z"/>
      <path class="cls-11" d="M119.52,65c-.39,.33-.77,.67-1.16,1-.26-.87,.27-1.53,.6-2.24,.49,.27,.63,.71,.56,1.24Z"/>
      <path class="cls-10" d="M117.77,67.48c.2-.2,.39-.41,.59-.61,0,0,.02,.02,.02,.02-.19,.2-.39,.41-.58,.61l-.03-.02Z"/>
      <path class="cls-10" d="M117.88,68.15c-.35-.01-.69-.03-1.04-.04,.31-.21,.62-.42,.93-.63,0,0,.03,.02,.03,.02,.03,.22,.05,.43,.08,.65Z"/>
      <path class="cls-16" d="M103.53,86.3c-.52,.41-.8,.94-.81,1.6-.63-.24-1.27-.49-1.9-.73,.04-.73,.07-1.46,.11-2.19,1.53-1.02,.36-2.95,1.37-4.14,1.87,1.49-.67,3.98,1.23,5.46Z"/>
      <path class="cls-1" d="M103.53,86.3c-1.91-1.48,.64-3.97-1.23-5.46-.78-1.41-.19-2.38,1.02-3.14,.4,0,.79,0,1.19,.01-1.28,2.22-.08,4.4,.17,6.58,.13,1.1,.35,1.97-1.15,2.01Z"/>
      <path class="cls-17" d="M91.3,102.41c0,.46-.09,.9-.55,1.14,0-.47,.09-.89,.55-1.14Z"/>
      <path class="cls-12" d="M118.34,133.02c1.21-.4,2.43-.79,3.64-1.19,.58-.12,1.16-.25,1.73-.37,1.14-.23,2.37,.05,3.4-.7,1.1,.03,2.2,.05,3.3,.08,.36,.14,.71,.33,1.08,.43,.99,.27,2.58-.6,2.89,.76,.42,1.88-1.06,.8-1.82,.81-.06,0-.12,.33-.18,.51-1.51,4.4-1.34,9.05-2.01,13.57-2.08,.81-.47,1.58,.03,2.36,.13,1.45-.62,2-1.97,1.93-.56-.75-1.76-.76-1.99-1.99-.24,.42-.5,.66-.52,.93-.14,1.48-2.89,3.07-.65,4.26,2.22,1.18,2.09-1.92,3.2-2.9-.08,1.72,.73,3.54-.57,5.12-.74,.13-1.68-.92-2.15,.02-.48,.97,.64,1.52,1.23,2.14,.91,.95,2.53,.21,3.37,1.38,.79,.07,1.38,1.76,2.11,.67,.49-.73-.68-1.16-1.5-1.25-.01-.39-.03-.77-.04-1.16,1.36,.72,2.83,.54,4.28,.56-.13,.92,.27,1.31,1.18,1.22,.15,1.47-.61,2.39-1.83,3.01-.18,0-.36,0-.54,0-1.09,0-1.68,.56-1.87,1.61-1.17,.39-2.42-.95-3.55,.18-.05-.08-.16-.21-.15-.22,.29-.28-.15-.35-.23,.02-.1,.5-.9,1.32,.42,1.44,.44,0,.84,.1,1,.58-.78,.85-.33,1.92-.51,2.87-.19,.24-.37,.48-.56,.71-1.48,.47-2.07-1.17-3.84-1.82,.89,1.4-.43,3.17,2.02,3.05,5.22-.24,8.62,4.19,13.32,5.35,.27,.07,.37,.86,.54,1.31-1.61,1.17-4.02-.13-5.39,1.76-.3,0-.61,.02-.9-.03-.68-.13-1.34-.36-2.02-.46-1.5-.23-2.47,.8-1.47,1.35,1.37,.74,2.89,.53,4.27-.27,.09-.05,.18-.1,.26-.14,2.39,.44,4.69-.13,7-.62,.09,1.05-.22,2.26,1.12,2.8-2.48,1.17-5.02,2.21-7.68,2.88-1.62,.01-3.24,.03-4.86,.04-3.74-.03-6.83-2.06-10.18-3.32-.04-1.35-1.37-.43-1.82-1.04-.19,0-.39,0-.58,0-.81-1.72-1.1-3.88-3.57-4.19l-2.46-3.71c.11-.93-.8-1.14-1.21-1.7-2.04-4.99-4.05-9.98-4.55-15.44-.58-6.3-.32-12.33,3.79-17.65,1.4-1.81,3.44-2.67,5.01-4.17,.6-.28,1.2-.55,1.8-.82,.21-.14,.43-.28,.64-.42,0,0-.04,.06-.04,.06,.2,.03,.38-.03,.54-.15Zm1.69,20.54c-.78,.01-1.58,.04-1.61,1.16-.02,1.1,.72,1.26,1.56,1.23,.75-.02,1.76,.2,1.84-.89,.08-1.09-.79-1.45-1.79-1.5Zm14.13,7.43c-.07-.03-.14-.05-.21-.08-.01,.11-.02,.21-.03,.32,.07-.02,.16-.01,.22-.05,.03-.03,.02-.12,.02-.18Z"/>
      <path class="cls-5" d="M143.49,182.67c-1.35-.54-1.03-1.75-1.12-2.8,1.1-2.4-.96-1.29-1.75-1.58-.18-.45-.27-1.24-.54-1.31-4.7-1.16-8.1-5.59-13.32-5.35-2.45,.11-1.13-1.66-2.02-3.05,1.77,.65,2.36,2.29,3.84,1.82,1.25,.21,2.58,.8,3.73,.54,3.93-.89,10.04,2.48,10.71-5.21,.02-.24,.99-.1,.89-.9-1.44-.07-2.27,.49-2.1,2.04,.2,1.88-.83,2.02-2.42,2.44-3.45,.92-6.85-.03-10.24,.37,.17-.96-.27-2.02,.51-2.87,1.14-1.54,2.81-1.12,4.35-1.18,.23,2.27,1.99,.57,2.94,1.09,.45,.25,1.65,.29,1.58-.65-.06-.77,.42-1.71,.16-2.04-.4-.51-1.04,.1-1.65,.44-1.06,.6-2.15,.17-2.47-1.26,1.23-.63,1.98-1.55,1.83-3.01,.67-1.08,3.19-1.72,2.12-2.91-1.14-1.27-2.12,1.13-3.3,1.7-1.45-.02-2.93,.16-4.28-.56,0,0,.05,0,.05,0-.24-.21-.48-.42-.72-.62-.92-.1-1.69-.52-2.35-1.17,1.3-1.58,.48-3.4,.57-5.12,0,0-.04-.29-.04-.29,1.35,.06,2.1-.48,1.97-1.93,1.08-.25,3,.63,3.1-.53,.14-1.59-1.79-1.64-3.13-1.83,.67-4.52,.5-9.17,2.01-13.57,.06-.18,.12-.51,.18-.51,.76,0,2.23,1.07,1.82-.81-.3-1.36-1.9-.49-2.89-.76-.37-.1-.72-.28-1.08-.43,8.02-.84,15.38,1.16,22.25,5.23,1.38,1.6,2.76,3.21,4.14,4.81,4.84,12.64,1.91,24.17-5.43,34.8-1.95,2.82-4.42,5.62-7.88,7Zm-5.61-34.3c-2.37,3.41,.93,4.76,1.75,6.9,1.54-2.8-.32-4.64-1.75-6.9Zm8.91,15.3c.17-.2,.38-.34,.36-.44-.05-.32-.19-.63-.29-.95-.08,.17-.22,.34-.22,.51,0,.27,.08,.54,.15,.88Z"/>
      <path class="cls-10" d="M156.8,140.86c-1.38-1.6-2.76-3.21-4.14-4.81,2.24-1.44,3.8-1.07,5.02,1.54,.51,1.09,1.94,2.88-.88,3.27Z"/>
      <path class="cls-16" d="M153.83,133.01c3.36,.11,6.11-1.57,8.94-3.02-1.65,4.01-6.07,5.51-8.94,3.02Z"/>
      <path class="cls-1" d="M127.11,130.75c-1.03,.75-2.26,.48-3.4,.7,.92-1.27,2.23-.62,3.4-.7Z"/>
      <path class="cls-17" d="M105.24,119.1c1.66,.19,3.31,.02,4.95,.78,4.38,2.02,4.42,1.94,5.82-2.39,.94,.05,2.12-.41,2.39,1.1-.21,.22-.43,.44-.64,.66-.66,.06-.95,.44-1.25,1.04-1.5,2.98-4.68,3.55-6.68,1.01-1.27-1.6-3.4-.79-4.59-2.19Z"/>
      <path class="cls-4" d="M105.32,118.19c-.02,.32-.04,.64-.06,.96-.5-.09-1.38,.48-1.39-.41,0-.7,.84-.64,1.45-.54Z"/>
      <path class="cls-7" d="M116.49,103.36c-.13-1.16,.42-1.77,1.55-1.57,2.91,.51,5.84,.29,8.77,.39-.04,.67-.07,1.34-.11,2.01-2.99,.29-5.97,.72-8.99,.55,.06-.87-.53-1.16-1.22-1.37Z"/>
      <path class="cls-2" d="M140.81,102.55c-1.64,.83-3.31,2.59-4.8-.19-.33-.84-2.83-1.73,.4-2.43,1.5-.33,2.98-.36,4.45-.62,.13,.18,.25,.36,.38,.53-.37,.87-.69,1.74-.43,2.71Z"/>
      <path class="cls-17" d="M117.71,104.73c3.02,.18,6-.26,8.99-.54,.89,.2,1.78,.4,2.67,.59-4.28,1.12-8.62-.05-12.82,1.05-1.2,.05-2.41,.1-3.61,.15-.38-.06-.76-.11-1.13-.17-.03-.18-.05-.35-.07-.53-.19-.39-.37-.77-.56-1.16,2.17,.2,4.35,.4,6.52,.6Z"/>
      <path class="cls-10" d="M140.86,99.3c-1.47,.25-2.95,.29-4.45,.62-3.24,.71-.73,1.59-.4,2.43-.88-.02-1.75-.04-2.62-.05,.06-.73-.35-1.26-.77-1.79,.25-.24,.5-.48,.75-.71,.34,.11,.52-.01,.56-.37l.14-.09c.21-.12,.42-.23,.63-.35,2.13-1.37,4.18-1.09,6.17,.3Z"/>
      <path class="cls-7" d="M145.4,104.83c2.16,.23,4.41-.62,6.5,.5-2.39-.17-4.3,1.36-6.51,1.82-.56-.78,.28-1.55,.01-2.32Z"/>
      <path class="cls-1" d="M112.95,105.98c1.2-.05,2.41-.1,3.61-.15,.75,1.22,2.01,.46,2.99,.77-2.37,1.66-4.68,2.59-6.6-.62Z"/>
      <path class="cls-1" d="M129.29,107.07c-1.74,.96-3.44,1.57-4.9-.46,1.63,.22,3.35-.57,4.9,.46Z"/>
      <path class="cls-16" d="M132.61,100.51c.42,.53,.83,1.05,.77,1.79-1.92,.03-3.92,.82-5.69-.59,.07-.08,.15-.15,.25-.2,1.79,.73,3.11-.68,4.68-1Z"/>
      <path class="cls-10" d="M140.81,102.55c-.26-.97,.06-1.84,.43-2.71,.68,.67,1.36,1.34,2.03,2.01-.02,.18-.08,.36-.17,.52-.77,.06-1.53,.12-2.3,.19Z"/>
      <path class="cls-10" d="M128.37,114.53c.02,.18,.08,.35,.19,.5,1.14,2.19,.66,3.6-1.9,4.02-1.14,.35-1.86-.23-2.5-1.16,.08-.68,.7-.39,1.06-.46,1.15-.22,1.81-1.04,1.79-2.04-.01-.99-.98-1.43-1.91-1.47-.74-.03-1.33-.25-1.85-.74,2.01-.7,4.1-1.71,5.12,1.35Z"/>
      <path class="cls-5" d="M111.19,104.13c.19,.39,.37,.77,.56,1.16-.62,.16-1.25,.31-1.87,.46-.58,.03-1.16,.06-1.73,.1-.4-.17-.8-.35-1.2-.52,0-.57,0-1.13-.01-1.69,1.37,0,2.74,0,4.11,.01,0,0,.23-.04,.23-.04-.1,.16-.13,.34-.08,.53Z"/>
      <path class="cls-11" d="M109.87,105.75c.62-.15,1.25-.31,1.87-.46,.02,.18,.04,.35,.07,.53-.65-.02-1.3-.04-1.95-.07Z"/>
      <path class="cls-17" d="M107.59,115.58c.74,.06,1.15,.44,1.14,1.21-.39,.23-.78,.45-1.16,.68,0-.63,.02-1.26,.02-1.88Z"/>
      <path class="cls-17" d="M160.98,106.57c.35-.97,1.14-.67,1.84-.62-.41,.79-1.16,.59-1.84,.62Z"/>
      <path class="cls-17" d="M162.81,105.38c.44,.12,.99,.03,1.2,.61-.42,0-.83-.02-1.25-.03-.07-.2-.05-.39,.05-.58Z"/>
      <path class="cls-4" d="M118.95,181.23c.45,.62,1.79-.31,1.82,1.04-.26,.05-.53,.09-.79,.14-.79,0-1.02-.49-1.03-1.18Z"/>
      <path class="cls-4" d="M114.8,177.04c2.46,.31,2.75,2.47,3.57,4.19-.06,.53-.21,1.06-.88,.73-2.43-1.22-4.88-2.44-6.33-4.94,1.21,.28,2.42,.37,3.64,.03Z"/>
      <path class="cls-15" d="M114.8,177.04c-1.21,.34-2.43,.25-3.64-.03,0,0-.21-.09-.21-.09,0,0-.22,.01-.22,.01-.25-.18-.5-.36-.74-.55,0,0,0,0,0,0-.18-.25-.37-.5-.55-.75,0-.28,0-.56,0-.84,.97-.49,1.93-.97,2.9-1.45l2.46,3.71Z"/>
      <path class="cls-4" d="M112.34,173.33c-.97,.48-1.93,.97-2.9,1.45-.44-1.62-.88-3.24-1.33-4.86,1.15,.32,1.68,1.73,3.02,1.71,.41,.56,1.31,.77,1.21,1.7Z"/>
      <path class="cls-4" d="M109.43,175.63c.18,.25,.37,.5,.55,.75-.18-.25-.37-.5-.55-.75Z"/>
      <path class="cls-4" d="M109.99,176.39c.25,.18,.49,.37,.74,.55-.25-.18-.5-.37-.74-.55Z"/>
      <path class="cls-9" d="M117.84,133.11c-.21,.14-.43,.28-.64,.42,.21-.14,.43-.28,.64-.42Z"/>
      <path class="cls-9" d="M118.34,133.02c-.16,.13-.34,.18-.54,.15,.09-.39,.23-.59,.54-.15Z"/>
      <path class="cls-7" d="M146.46,81.97c-.38,.03-.76,.06-1.14,.09-.05-.22-.1-.43-.16-.65,.2-.68,.2-1.35-.08-2.01l.21-3.46c-.26-1.76,.17-3.93-2.55-4.18-.68-.68-.98-1.53-1.13-2.46,.83-.04,1.34-.41,1.33-1.31,1.01-.6,2.02-1.19,3.03-1.78,.9,2,2.12,3.82,3.82,5.17,1.27,1.01,.88,1.53-.2,2.14-.76-.51-1.53-.94-2.41-.25-.92,.72-.05,1.41,.02,2.12,.08,.76,.4,1.53,.02,2.29-.19,.61-.39,1.23-.58,1.84-.06,.81-.12,1.62-.17,2.43Z"/>
      <path class="cls-7" d="M150.83,87.36c0-.21-.02-.42-.03-.63-.5-1.36-1.25-2.65-1.27-4.16,1.46-2.54,3.59-4.06,6.49-4.41,.77,1.7-1.98,1.71-1.46,3.25-1.32,1.94-.74,5.07-3.74,5.96Z"/>
      <path class="cls-1" d="M147.21,77.69c.39-.77,.06-1.53-.02-2.29-.07-.71-.94-1.4-.02-2.12,.88-.69,1.65-.26,2.41,.25,1.86,2.88,1.31,3.86-2.37,4.16Z"/>
      <path class="cls-9" d="M149.53,82.56c.02,1.51,.77,2.8,1.27,4.16-3.34,.15-2.81-3.25-4.34-4.75,.06-.81,.11-1.62,.17-2.43,1.47,.17,2.61,.59,1.96,2.47-.02,.07,.62,.36,.95,.55Z"/>
      <path class="cls-1" d="M159.33,78.63c.37,0,.74,0,1.12,0,.38,0,.75,0,1.13,.01,.22,.11,.44,.22,.67,.33,.38,3.36-2.81,1.37-3.84,3.06-.33-1.65,1.09-2.26,.93-3.39Z"/>
      <path class="cls-1" d="M164.59,78.92c.42-.09,.84-.18,1.26-.27,.21,.08,.41,.16,.62,.25-.09,.42-.18,.83-.28,1.25-.86,.01-1.56-.18-1.61-1.23Z"/>
      <path class="cls-10" d="M168.16,96.48c.35-.67,.82-.84,1.38-.27,.53,.54,.43,1.04-.21,1.44-.15-.06-.3-.11-.46-.14-.24-.34-.47-.69-.71-1.03Z"/>
      <path class="cls-13" d="M118.21,69.81c.14-.66,.47-1.14,1.19-1.23,2.48,.13,2.9-1.3,2.52-3.34,0,0,.01-.11,.01-.11,1.46-.01,2.88-.06,4.34-.43,1.31-.33,2.96-.45,3.5,1.5-1.39,.94-1.58,1.77,.21,2.47,1.03,.4,2.13,.77,2.5,2.08-1.3,.48-2.06-.42-2.98-.67-.62-.17-1.29-.25-1.45,.52-.28,1.38,1.46,1.11,1.78,2.04-2.36,1.15-5.74,.65-6.6,4.24-.2,.85-.72,.04-1.1-.11-2.5-1-4.25,0-5.56,2.14-1.29,.05-.89-1.67-1.95-1.85-.04-1.49,.34-2.9,.77-4.3,1.28,.41,2.29-.13,3.3-.85,1.32-.94,.53-1.39-.35-1.87l-.15-.21Z"/>
      <path class="cls-2" d="M116.58,78.89c1.3-2.14,3.05-3.14,5.56-2.14,.38,.15,.9,.96,1.1,.11,.86-3.59,4.24-3.09,6.6-4.24-.32-.93-2.07-.66-1.78-2.04,.16-.78,.83-.69,1.45-.52,.92,.25,1.67,1.15,2.98,.67-.37-1.31-1.47-1.67-2.5-2.08-1.79-.7-1.59-1.52-.21-2.47,2.56,1.22,6.19,.7,7.24,4.41,0,.34,0,.68,0,1.02-2.46,.85-1.72,3.05-2.02,4.81-2.31,.45-4.8-.68-7,.78-1.98,.63-3.67,1.81-5.42,2.87-2.16,.53-3.9-1.4-6.03-1.02l.05-.16Z"/>
      <path class="cls-6" d="M145.16,81.41c.05,.21,.1,.43,.16,.65-.04,.86,.16,2.05-1.32,1.12-.98-.62-1.92-1.29-3.15-1.29-.72-.88-1.44-1.77-2.16-2.65,.02-.46,.05-.92,.07-1.39,.4,.04,.79,.07,1.19,.11,1.71,1.42,3.07,2.1,3.11-1.17,.02-1.87,1.08-1.63,2.23-.85-.07,1.15-.14,2.3-.21,3.46-1.25,.72-1.22,1.39,.08,2.01Z"/>
      <path class="cls-17" d="M145.29,75.95c-1.15-.78-2.21-1.03-2.23,.85-.03,3.26-1.4,2.58-3.11,1.17,1.67-1.73,2.71-3.74,2.78-6.19,2.72,.25,2.3,2.42,2.55,4.18Z"/>
      <path class="cls-8" d="M138.77,77.85c-.02,.46-.05,.92-.07,1.39-1.29-.71-2.59-1.36-4.01-.27-2.09-1.13-4.89,.41-6.71-1.76,2.2-1.46,4.69-.33,7-.78,1.08,.95,2.78,.26,3.79,1.42Z"/>
      <path class="cls-1" d="M140.55,62.11c.09-1.7-.38-2.89-2.39-2.85-.93,.02-1.72-.3-2.24-1.45,2.23-.3,4.32-1.23,6.47,.05-.07,1.23-1.83,2.38-.15,3.68-.36,.42-.02,1.42-1.06,1.25-.2-.25-.41-.49-.61-.74l-.02,.05Z"/>
      <path class="cls-15" d="M142.94,68c.01,.9-.5,1.26-1.33,1.31-1.05,.2-1.72-.32-2.05-1.24-.19-.55-1.02-1.11-.08-1.77,.77-.55,1.24-.2,1.72,.39,.47,.57,.69,1.49,1.74,1.31Z"/>
      <path class="cls-1" d="M137,71.62c0-.34,0-.68,0-1.02,1.25-.12,2.53,.06,3.8-.73-.81,3.69-.96,3.75-3.8,1.75Z"/>
      <path class="cls-16" d="M140.57,62.07c.2,.25,.41,.49,.61,.74-.2-.25-.41-.49-.61-.74Z"/>
      <path class="cls-10" d="M134,60.86c-3.83-.12-7.65-.15-11.44,.6,1.54-1.95,4.05-1.39,5.98-2.33,1.77,.72,4.17-.54,5.46,1.73Z"/>
      <path class="cls-1" d="M128.54,59.13c-1.93,.94-4.44,.38-5.98,2.33-.16,.45,.34,1.32-.53,1.29-.65-.02-.61-.83-.72-1.38,0,0,.02,.05,.02,.05,.21-.22,.42-.44,.63-.66,1.3-1.85,4.11-.9,5.34-2.87,.87-.05,1.94-.3,1.24,1.23Z"/>
      <path class="cls-6" d="M153.82,92.74c.19,0,.38,.02,.57,.03,.04,.89,.54,1.44,1.3,1.84,1.06,.56,1.27,1.37,.76,2.48-.67,1.46-1.65,.61-2.51,.41-2.39-.56-3.95-2.58-6.1-3.58-1.55-1.47-3.22-2.71-5.41-3.04-.08-1.96-3.08-2.53-2.31-4.89,.55,.12,1.11,.24,1.66,.36,1.62,2.74,2.63,1.12,3.89-1.55,.05,5.57,4.67,4.67,6.93,6.75,.03,.79,.44,1.18,1.22,1.19Z"/>
      <path class="cls-4" d="M147.83,93.92c2.15,1,3.71,3.02,6.1,3.58,.86,.2,1.84,1.05,2.51-.41,.51-1.12,.31-1.92-.76-2.48-.76-.4-1.26-.95-1.3-1.84,5.02,.93,6.94,2.84,7.23,7.22-1.4,.44-3.47-1.51-4.24,1.19-.8,0-1.6-.02-2.4-.03,.23-1.21-.61-1.72-1.41-2.33-1.95-1.47-4.21-2.1-6.55-2.4-1.29-.17-1.72-.7-1.62-1.89,.84-.06,1.79,.31,2.42-.61Z"/>
      <path class="cls-1" d="M134.69,78.97c1.42-1.09,2.71-.44,4.01,.27,.72,.88,1.44,1.77,2.16,2.65-.05,.19-.11,.38-.18,.56-2.46,0-4.42,.88-5.58,3.17-1.5,.22-1.53-.94-1.79-1.9,.03-.19,.06-.39,.09-.58,.17-.21,.35-.41,.52-.62,.87-1.05,.53-2.37,.77-3.56Z"/>
      <path class="cls-10" d="M135.1,85.62c1.16-2.29,3.12-3.17,5.58-3.17,.1,.13,.15,.28,.17,.45-.29,.78-.58,1.56-.87,2.34-1.65-.1-3.15,1.61-4.88,.39Z"/>
      <path class="cls-1" d="M139.98,85.23c.29-.78,.58-1.56,.87-2.34,1.27,.89,3.71,1.47,.94,3.46-.55-.12-1.11-.24-1.66-.36l-.04-.07c-.03-.23-.07-.47-.1-.7Z"/>
      <path class="cls-4" d="M153.82,92.74c-.79,0-1.19-.4-1.22-1.19,.78,0,1.19,.41,1.22,1.19Z"/>
      <path class="cls-6" d="M145.41,94.53c-.1,1.18,.33,1.72,1.62,1.89,2.33,.3,4.6,.93,6.55,2.4,.8,.61,1.64,1.12,1.41,2.33-2.79,.05-5.58,1.59-8.38,.01-.83-2.71-2.52-4.08-5.46-3.55l.04-.04c.4-2.12-.44-3.81-1.84-5.31,0,0,.07-.11,.07-.11,2.13,.46,4.39,.61,6,2.39Z"/>
      <path class="cls-11" d="M143.27,101.84c-.68-.67-1.36-1.34-2.03-2.01-.13-.18-.25-.35-.38-.53-1.99-1.39-4.04-1.67-6.17-.3-.34-.12-.55,0-.63,.35,0,0-.14,.09-.14,.09-.19,.12-.37,.24-.56,.37-.25,.24-.5,.48-.75,.71-1.56,.32-2.89,1.73-4.68,1,.64-.44,1.35-.81,1.92-1.33,2.3-2.09,4.66-3.12,7.75-3.31,1.18,.3,2.31,.85,3.58,.68,0,0-.04,.04-.03,.04,.55,1.9,3.31,1.47,3.7,3.54-.34,.66-.93,.74-1.58,.7Z"/>
      <path class="cls-4" d="M144.85,101.15c-.39-2.07-3.15-1.64-3.7-3.54,2.93-.53,4.63,.84,5.46,3.55-.59,0-1.17,0-1.76-.01Z"/>
      <path class="cls-4" d="M134.69,78.97c-.25,1.19,.1,2.51-.77,3.56-.17,.21-.35,.41-.52,.62-.03,.19-.06,.39-.09,.58-1.76,1.9-1.02,5.15-3.55,6.64-.56,.2-1.1,.5-1.67,.56-.89,.09-1.99,.13-2.25-.95-.25-1.04,.66-1.63,1.51-1.93,2.74-.96,3.41-3.4,4.16-5.75,.2-.64,.27-1.49-.42-1.91-.75-.46-1.55-.27-2.19,.35-1.07,1.04-2.18,2.05-3.17,3.17-.96,1.08-1.96,1.23-3.15,.47-1.12-1.03,.46-2.1-.05-3.14,.01-.38,.02-.77,.03-1.15,1.75-1.06,3.44-2.25,5.42-2.87,1.82,2.17,4.61,.63,6.71,1.76Z"/>
      <path class="cls-1" d="M118.95,92.19c.03,.2,.03,.41,.11,.59,.79,1.83,1.86,3.85-.57,5.13-2.33,1.22-3.93-.2-5.13-2.16-.13-.66-.32-1.32-.38-1.99-.22-2.67,1.13-3.58,3.57-2.48,.78,.35,1.59,.61,2.39,.91Z"/>
      <path class="cls-6" d="M122.53,81.22c.51,1.04-1.07,2.11,.05,3.14-.15,1.85-1.86,2.71-2.69,4.15-.75,1.31-1.84-.2-2.74-.61,.13-.88,.68-2.21,.31-2.56-2.88-2.73,.27-2.99,1.52-4.03,1.19-.03,2.37-.06,3.56-.09Z"/>
      <path class="cls-4" d="M140.12,86c-.77,2.36,2.23,2.94,2.31,4.89-.98,.02-1.98-.06-2.95,.08-1.65,.23-.03,.78-.07,1.18,0,0-.07,.11-.07,.11-1.62,.33-2.71-1.07-4.16-1.3-.09-.28-.09-.69-.28-.82-.78-.55-2-.89-1.35-2.18,.59-1.16,1.63-1.15,2.81-.74,1.51,.52,2.66-.32,3.71-1.29l.04,.07Z"/>
      <path class="cls-4" d="M118.97,81.31c-1.24,1.04-4.4,1.3-1.52,4.03,.37,.35-.18,1.69-.31,2.56-1.9-.41-3.8-.83-5.7-1.23-1.26-.27-2.2-.82-2.18-2.3,.04-.24,.08-.48,.11-.73,1.25,.53,2.5,1.05,3.74,1.59,.85,.37,1.95,.15,1.71-.69-.39-1.36,1.02-2.33,.41-3.57,.1-.76,.36-1.4,1.26-1.48,.39,1.2,1.82,.97,2.47,1.82Z"/>
      <path class="cls-17" d="M140.08,85.93c-1.05,.98-2.2,1.82-3.71,1.29-1.18-.41-2.22-.42-2.81,.74-.65,1.28,.57,1.63,1.35,2.18,.19,.13,.19,.54,.28,.82-1.86,.27-3.62-.38-5.43-.6,2.53-1.49,1.79-4.73,3.55-6.64,.26,.96,.29,2.12,1.79,1.9,1.73,1.22,3.24-.49,4.88-.39,.03,.23,.07,.47,.1,.7Z"/>
      <path class="cls-6" d="M109.38,83.65c-.04,.24-.08,.48-.11,.73-3.05-.99-1.19-3.57-1.73-5.37,.71,.17,.76,1.3,1.68,1.16-.72,1.2-.15,2.34,.17,3.49Z"/>
      <path class="cls-15" d="M111.19,104.13c-.04-.19-.01-.36,.08-.53,1.64-.04,3.28-.07,4.92-.11,.1-.05,.2-.09,.3-.13,.68,.21,1.28,.5,1.22,1.37-2.17-.2-4.35-.4-6.52-.6Z"/>
      <path class="cls-16" d="M121.96,60.77c-.21,.22-.42,.44-.63,.66,.21-.22,.42-.44,.63-.66Z"/>
      <path class="cls-6" d="M116.5,79.49c-.9,.08-1.16,.71-1.26,1.48-.76-.68-.92-1.98-2.19-2.15-.24-.59-.48-1.18-.72-1.77,.76-1.22,1.53,.36,2.3-.02,1.06,.19,.66,1.91,1.95,1.86,0,0-.05,.16-.05,.16,0,.15-.02,.29-.03,.44Z"/>
      <path class="cls-10" d="M113.05,78.82c1.27,.17,1.43,1.46,2.19,2.15,.62,1.24-.8,2.21-.41,3.57,.24,.84-.85,1.06-1.71,.69-1.24-.54-2.49-1.06-3.74-1.59-.32-1.15-.89-2.29-.17-3.49,1.28-.45,2.56-.89,3.84-1.34Z"/>
      <path class="cls-2" d="M121.92,65.24c.38,2.04-.05,3.47-2.52,3.34-.13-.18-.27-.36-.4-.54,.18-.4,.68-.78,.1-1.24,.38-.15,.77-.3,1.15-.45,.56,.2,1.21,.55,1.1-.56,.19-.18,.38-.37,.58-.55Z"/>
      <path class="cls-16" d="M119.1,66.8c.57,.46,.08,.84-.1,1.24-.37,.03-.74,.07-1.12,.1-.03-.22-.05-.43-.08-.65,.19-.2,.39-.41,.58-.61,.24-.03,.48-.06,.72-.09Z"/>
      <path class="cls-16" d="M118.35,70.02c-.29,.22-.58,.44-.87,.66-.04-.08-.14-.17-.13-.25,.07-.49,.48-.53,.85-.62,0,0,.15,.21,.15,.21Z"/>
      <path class="cls-13" d="M121.35,65.79c.11,1.12-.54,.76-1.1,.56,0-.22-.01-.45-.02-.67,.37,.04,.74,.07,1.12,.11Z"/>
      <path class="cls-17" d="M129.13,169.68c3.39-.4,6.8,.55,10.24-.37,1.58-.42,2.62-.56,2.42-2.44-.17-1.55,.66-2.11,2.1-2.04,.1,.8-.87,.66-.89,.9-.67,7.69-6.78,4.32-10.71,5.21-1.14,.26-2.48-.34-3.73-.54,.19-.24,.37-.48,.56-.71Z"/>
      <path class="cls-7" d="M128.43,151.2s.04,.3,.04,.29c-1.12,.98-.99,4.08-3.2,2.9-2.24-1.19,.52-2.78,.65-4.26,.02-.26,.28-.51,.52-.93,.22,1.23,1.43,1.25,1.99,1.99Z"/>
      <path class="cls-7" d="M140.61,178.29c.8,.29,2.85-.81,1.75,1.58-2.31,.49-4.61,1.06-7.01,.62-.04-.15-.09-.3-.14-.44,1.38-1.89,3.78-.59,5.39-1.76Z"/>
      <path class="cls-17" d="M134.55,163.2c.32,1.43,1.41,1.86,2.47,1.26,.61-.35,1.26-.96,1.65-.44,.25,.33-.22,1.27-.16,2.04,.07,.94-1.13,.9-1.58,.65-.95-.51-2.71,1.18-2.94-1.09,0-.22,0-.45,0-.67,0-.59,.02-1.17,.02-1.76,.18,0,.36,0,.54,0Z"/>
      <path class="cls-7" d="M127.9,156.61c.65,.65,1.42,1.06,2.35,1.17,.24,.21,.48,.42,.72,.62,0,0-.05,0-.05,0,.01,.39,.03,.77,.04,1.16-.2,.19-.41,.39-.61,.58-.84-1.17-2.46-.42-3.37-1.38-.59-.62-1.71-1.17-1.23-2.14,.47-.94,1.41,.11,2.15-.02Z"/>
      <path class="cls-7" d="M130.37,146.91c1.34,.18,3.27,.24,3.13,1.83-.1,1.17-2.03,.28-3.1,.53-.49-.78-2.11-1.55-.03-2.36Z"/>
      <path class="cls-5" d="M120.03,153.55c1.01,.05,1.87,.4,1.79,1.5-.08,1.1-1.09,.87-1.84,.89-.85,.02-1.59-.14-1.56-1.23,.02-1.12,.83-1.15,1.61-1.16Z"/>
      <path class="cls-7" d="M135.2,158.97c1.18-.56,2.16-2.97,3.3-1.7,1.07,1.2-1.44,1.83-2.12,2.91-.91,.1-1.31-.3-1.18-1.22Z"/>
      <path class="cls-5" d="M135.22,180.04c.06,.15,.1,.29,.14,.44-.09,.05-.17,.09-.26,.14-1.38,.8-2.91,1.01-4.27,.27-1-.54-.03-1.58,1.47-1.35,.68,.1,1.35,.33,2.02,.46,.29,.06,.6,.03,.9,.03Z"/>
      <path class="cls-7" d="M133.99,164.96c0,.22,0,.45,0,.67-1.54,.06-3.21-.36-4.35,1.18-.17-.49-.56-.58-1-.58-.01-.41-.03-.83-.04-1.24,1.13-1.12,2.39,.21,3.55-.18,.61,.05,1.23,.1,1.84,.15Z"/>
      <path class="cls-5" d="M130.35,160.14c.2-.19,.41-.39,.61-.58,.82,.08,1.98,.52,1.5,1.25-.73,1.09-1.32-.59-2.11-.67Z"/>
      <path class="cls-5" d="M133.99,164.96c-.61-.05-1.23-.1-1.84-.15,.18-1.05,.78-1.61,1.87-1.61,0,.59-.02,1.17-.02,1.76Z"/>
      <path class="cls-9" d="M128.59,164.98c.01,.41,.03,.83,.04,1.24-1.32-.12-.52-.94-.42-1.44,.07-.37,.52-.3,.23-.02-.01,0,.1,.14,.15,.22Z"/>
      <path class="cls-5" d="M134.16,160.99c0,.06,0,.16-.02,.18-.06,.04-.14,.04-.22,.05,.01-.11,.02-.21,.03-.32,.07,.03,.14,.05,.21,.08Z"/>
      <path class="cls-7" d="M137.88,148.36c1.43,2.26,3.29,4.1,1.75,6.9-.82-2.14-4.12-3.48-1.75-6.9Z"/>
      <path class="cls-9" d="M146.79,163.66c-.06-.34-.15-.61-.15-.88,0-.17,.14-.34,.22-.51,.1,.31,.24,.62,.29,.95,.02,.1-.19,.24-.36,.44Z"/>
      <path class="cls-12" d="M130.96,158.4c-.24-.21-.48-.42-.72-.62,.24,.21,.48,.42,.72,.62Z"/>
      <path class="cls-16" d="M134.06,99.35c.08-.35,.29-.47,.63-.35-.21,.12-.42,.23-.63,.35Z"/>
      <path class="cls-16" d="M133.36,99.8c.19-.12,.37-.24,.56-.37-.04,.35-.22,.48-.56,.37Z"/>
      <path class="cls-17" d="M145.16,81.41c-1.3-.62-1.33-1.29-.08-2.01,.28,.66,.28,1.33,.08,2.01Z"/>
      <path class="cls-17" d="M116.5,79.49c.01-.15,.02-.29,.03-.44,2.13-.38,3.88,1.55,6.03,1.02-.01,.38-.02,.77-.03,1.15-1.19,.03-2.38,.06-3.56,.09-.65-.85-2.08-.62-2.47-1.82Z"/>
      <path class="cls-17" d="M139.41,92.14c.04-.4-1.58-.94,.07-1.18,.97-.14,1.96-.06,2.95-.08,2.19,.33,3.86,1.56,5.41,3.03-.63,.91-1.58,.55-2.42,.61-1.61-1.78-3.87-1.93-6-2.39Z"/>
      <path class="cls-17" d="M133.4,83.14c.17-.21,.35-.41,.52-.62-.17,.21-.35,.41-.52,.62Z"/>
    </g>
  </g>
</svg>